{"glyphs":{"0":{"ha":1311,"x_min":41,"x_max":1271,"o":"m 767 780 q 740 794 767 780 q 656 809 713 809 q 546 780 600 809 q 450 700 492 751 q 382 575 408 650 q 357 416 357 501 q 383 259 357 334 q 454 129 409 183 q 656 24 542 24 q 859 129 771 24 q 930 258 904 183 q 956 416 956 334 q 930 575 956 501 q 862 700 904 650 q 767 780 821 751 m 457 1086 q 505 1105 457 1086 q 656 1124 553 1124 q 856 1086 760 1124 q 1026 982 952 1049 q 1156 827 1101 916 q 1241 633 1212 739 q 1271 416 1271 528 q 1227 154 1271 280 q 1101 -73 1184 27 q 899 -233 1015 -175 q 656 -290 783 -290 q 414 -233 530 -290 q 212 -73 298 -175 q 85 154 129 27 q 41 416 41 280 q 71 633 41 528 q 156 827 100 739 q 286 982 212 916 q 457 1086 361 1049 z "},"1":{"ha":397,"x_min":41,"x_max":357,"o":"m 41 1111 l 357 1111 l 357 -278 l 41 -278 l 41 1111 z "},"2":{"ha":1047,"x_min":41,"x_max":1006,"o":"m 516 1111 q 689 1078 604 1113 q 841 979 774 1042 q 948 822 907 916 q 989 621 989 728 q 859 252 990 414 q 604 39 768 139 q 566 17 597 35 l 1006 17 l 1006 -298 l 54 -298 l 54 -41 q 131 122 54 51 q 229 192 169 157 q 330 247 257 208 q 441 309 402 286 q 614 449 556 378 q 661 528 646 488 q 675 618 675 567 q 662 710 675 673 q 627 765 650 747 q 580 790 604 783 q 524 796 555 797 q 477 790 498 795 q 433 770 456 785 q 395 731 411 755 q 369 667 380 707 q 357 572 358 626 l 41 581 q 86 795 45 696 q 194 963 127 895 q 343 1069 260 1030 q 516 1111 427 1109 z "},"3":{"ha":1175,"x_min":41,"x_max":1134,"o":"m 132 1111 l 1030 1111 l 1030 798 l 812 644 q 878 613 841 633 q 1065 427 996 547 q 1134 168 1134 307 q 1105 -1 1134 77 q 1027 -136 1076 -79 q 910 -236 977 -193 q 768 -301 844 -278 q 612 -331 693 -324 q 454 -326 532 -337 q 306 -283 377 -314 q 180 -205 235 -252 q 88 -90 125 -159 q 41 62 51 -20 l 355 98 q 375 53 357 75 q 420 17 393 32 q 483 -9 448 2 q 555 -22 517 -20 q 631 -21 593 -24 q 703 -3 669 -18 q 763 33 736 11 q 804 89 789 54 q 819 168 819 124 q 797 271 819 231 q 725 338 774 310 q 644 367 690 357 q 527 371 597 376 q 377 342 456 366 l 175 283 l 175 581 l 481 796 l 132 796 l 132 1111 z "},"4":{"ha":1116,"x_min":41,"x_max":1076,"o":"m 224 1111 l 545 1111 l 425 507 l 760 507 l 760 1111 l 1076 1111 l 1076 -278 l 760 -278 l 760 192 l 41 192 l 224 1111 z "},"5":{"ha":1175,"x_min":41,"x_max":1135,"o":"m 932 1111 l 934 796 l 454 794 l 454 711 q 777 709 618 757 q 1031 531 928 663 q 1134 225 1135 399 q 1088 6 1134 108 q 966 -165 1043 -96 q 616 -308 825 -291 q 259 -234 418 -324 q 113 -102 173 -185 q 41 84 53 -18 l 355 121 q 371 75 358 93 q 415 40 384 58 q 495 12 448 22 q 590 6 543 2 q 756 71 694 15 q 804 134 788 99 q 819 226 819 170 l 819 227 q 787 347 820 306 q 686 408 753 387 q 597 417 643 419 q 505 396 552 416 q 421 340 457 376 l 375 294 l 139 294 l 139 1108 l 932 1111 z "},"6":{"ha":1104,"x_min":40,"x_max":1064,"o":"m 823 1185 l 919 894 q 591 711 738 834 q 829 632 720 701 q 1001 450 937 562 q 1064 207 1064 337 q 1023 11 1064 104 q 913 -151 982 -83 q 750 -259 844 -218 q 553 -299 655 -299 q 356 -259 450 -299 q 192 -151 261 -218 q 82 11 123 -83 q 41 207 41 104 q 43 237 41 217 q 108 570 40 413 q 294 851 176 726 q 541 1053 404 968 q 823 1185 678 1137 m 692 342 q 664 370 692 342 q 553 397 635 397 q 413 342 470 397 q 357 207 357 287 q 413 72 357 127 q 553 16 470 16 q 692 72 635 16 q 749 207 749 127 q 692 342 749 287 z "},"7":{"ha":875,"x_min":41,"x_max":834,"o":"m 41 1111 l 834 1111 l 834 812 l 818 779 q 642 373 730 598 q 521 8 571 191 q 471 -277 471 -175 l 157 -277 q 173 -92 157 -190 q 218 109 189 6 q 278 298 248 212 q 349 488 308 383 q 478 796 410 646 l 41 796 l 41 1111 z "},"8":{"ha":1100,"x_min":41,"x_max":1060,"o":"m 644 802 q 626 817 644 802 q 551 833 608 833 q 458 802 493 833 q 422 732 422 770 q 458 662 422 693 q 551 631 493 631 q 644 662 608 631 q 679 732 679 693 q 644 802 679 770 m 382 1116 q 423 1132 382 1116 q 551 1147 464 1147 q 719 1116 637 1147 q 861 1029 800 1084 q 958 896 921 974 q 994 732 994 819 q 911 490 994 597 q 1020 339 981 425 q 1060 157 1060 254 q 1018 -29 1060 59 q 907 -179 977 -117 q 744 -278 837 -241 q 551 -314 651 -314 q 357 -278 450 -314 q 195 -179 264 -241 q 83 -29 125 -117 q 41 157 41 59 q 81 339 41 254 q 191 490 121 425 q 107 732 107 597 q 144 896 107 819 q 241 1029 180 974 q 382 1116 301 1084 m 690 266 q 663 290 690 266 q 551 313 635 313 q 411 266 466 313 q 357 157 357 219 q 411 48 357 96 q 551 1 466 1 q 690 48 635 1 q 745 157 745 96 q 690 266 745 219 z "},"9":{"ha":1104,"x_min":41,"x_max":1065,"o":"m 413 493 q 442 465 413 493 q 553 437 470 437 q 692 493 635 437 q 749 628 749 548 q 692 763 749 708 q 553 819 635 819 q 413 763 470 819 q 357 628 357 708 q 413 493 357 548 m 1063 597 q 997 264 1065 421 q 812 -17 929 108 q 565 -218 702 -134 q 282 -350 427 -302 l 186 -59 q 515 124 368 1 q 277 203 385 134 q 105 385 168 273 q 41 628 41 498 q 82 824 41 730 q 192 985 123 918 q 356 1093 261 1053 q 553 1133 450 1133 q 750 1093 655 1133 q 913 985 844 1053 q 1023 824 982 918 q 1064 628 1064 730 q 1063 597 1064 617 z "},"\u0000":{"ha":83,"x_min":0,"x_max":0,"o":""},"\r":{"ha":83,"x_min":0,"x_max":0,"o":""},"\u0001":{"ha":83,"x_min":0,"x_max":0,"o":""},"\u0002":{"ha":83,"x_min":0,"x_max":0,"o":""},"\u0003":{"ha":83,"x_min":0,"x_max":0,"o":""},"\u0004":{"ha":83,"x_min":0,"x_max":0,"o":""},"\u0005":{"ha":83,"x_min":0,"x_max":0,"o":""},"\u0006":{"ha":83,"x_min":0,"x_max":0,"o":""},"\u0007":{"ha":83,"x_min":0,"x_max":0,"o":""},"\b":{"ha":83,"x_min":0,"x_max":0,"o":""},"\t":{"ha":83,"x_min":0,"x_max":0,"o":""},"\n":{"ha":83,"x_min":0,"x_max":0,"o":""},"\u000b":{"ha":83,"x_min":0,"x_max":0,"o":""},"\f":{"ha":83,"x_min":0,"x_max":0,"o":""},"\u000e":{"ha":83,"x_min":0,"x_max":0,"o":""},"\u000f":{"ha":83,"x_min":0,"x_max":0,"o":""},"\u0010":{"ha":83,"x_min":0,"x_max":0,"o":""},"\u0011":{"ha":83,"x_min":0,"x_max":0,"o":""},"\u0012":{"ha":83,"x_min":0,"x_max":0,"o":""},"\u0013":{"ha":83,"x_min":0,"x_max":0,"o":""},"\u0014":{"ha":83,"x_min":0,"x_max":0,"o":""},"\u0015":{"ha":83,"x_min":0,"x_max":0,"o":""},"\u0016":{"ha":83,"x_min":0,"x_max":0,"o":""},"\u0017":{"ha":83,"x_min":0,"x_max":0,"o":""},"\u0018":{"ha":83,"x_min":0,"x_max":0,"o":""},"\u0019":{"ha":83,"x_min":0,"x_max":0,"o":""},"\u001a":{"ha":83,"x_min":0,"x_max":0,"o":""},"\u001b":{"ha":83,"x_min":0,"x_max":0,"o":""},"\u001c":{"ha":83,"x_min":0,"x_max":0,"o":""},"\u001d":{"ha":83,"x_min":0,"x_max":0,"o":""},"\u001e":{"ha":83,"x_min":0,"x_max":0,"o":""},"\u001f":{"ha":83,"x_min":0,"x_max":0,"o":""}," ":{"ha":805,"x_min":0,"x_max":0,"o":""},"!":{"ha":397,"x_min":37,"x_max":351,"o":"m 351 1088 l 37 1088 l 37 62 l 351 62 l 351 1088 m 45 -277 l 340 -277 l 340 8 l 45 8 l 45 -277 z "},"\"":{"ha":688,"x_min":41,"x_max":648,"o":"m 41 1109 l 337 1109 l 337 865 l 174 592 l 41 592 l 41 1109 m 353 1109 l 648 1109 l 648 865 l 484 592 l 353 592 l 353 1109 z "},"#":{"ha":1685,"x_min":41,"x_max":1644,"o":"m 1259 1111 l 1644 1111 l 1506 794 l 1643 794 l 1503 479 l 1369 479 l 1289 294 l 1423 294 l 1284 -21 l 1152 -21 l 1040 -278 l 654 -278 l 766 -21 l 538 -21 l 427 -278 l 41 -278 l 153 -21 l 57 -21 l 197 294 l 290 294 l 371 479 l 253 479 l 393 794 l 508 794 l 646 1111 l 1031 1111 l 893 794 l 1120 794 l 1259 1111 m 983 479 l 756 479 l 675 294 l 903 294 l 983 479 z "},"$":{"ha":1304,"x_min":41,"x_max":1263,"o":"m 473 1275 l 699 1275 l 699 1140 q 1022 1046 883 1129 q 1175 898 1114 992 q 1236 693 1236 804 l 920 693 q 909 738 920 722 q 861 776 897 754 q 764 812 823 798 q 643 827 705 827 q 521 812 581 827 q 424 776 462 798 q 376 739 388 755 q 365 693 365 722 q 367 664 365 674 q 372 651 370 654 q 383 640 374 648 q 487 592 411 613 q 687 556 540 577 q 911 516 833 535 q 1139 414 1057 481 q 1229 297 1194 370 q 1263 149 1263 225 q 1201 -63 1263 34 q 1043 -215 1138 -159 q 749 -304 917 -289 l 749 -471 l 523 -471 l 523 -298 q 260 -208 374 -276 q 103 -58 165 -153 q 41 149 41 36 l 357 149 q 370 104 357 121 q 421 63 382 86 q 525 23 462 39 q 654 7 589 7 q 783 20 720 6 q 885 57 846 34 q 936 97 924 79 q 948 149 948 115 q 948 159 948 154 q 946 166 949 165 q 940 170 943 168 q 838 210 912 193 q 645 242 797 220 q 403 288 492 264 q 168 410 253 330 q 82 536 113 461 q 50 693 50 611 q 111 899 50 804 q 263 1047 172 993 q 473 1125 353 1101 l 473 1275 z "},"%":{"ha":1629,"x_min":41,"x_max":1588,"o":"m 1325 41 q 1308 59 1325 41 q 1242 77 1291 77 q 1159 41 1193 77 q 1124 -47 1124 5 q 1159 -136 1124 -100 q 1242 -172 1193 -172 q 1325 -136 1291 -172 q 1359 -47 1359 -100 q 1325 41 1359 5 m 1242 216 q 1420 141 1346 216 q 1497 -41 1495 65 q 1498 -44 1497 -41 q 1498 -47 1498 -46 q 1498 -51 1498 -49 q 1497 -54 1497 -53 q 1420 -236 1495 -160 q 1242 -311 1346 -311 q 1060 -233 1135 -311 q 985 -47 985 -155 q 1060 138 985 60 q 1242 216 1135 216 m 1181 1111 l 1588 1111 l 449 -278 l 41 -278 l 1181 1111 m 442 967 q 425 985 442 967 q 359 1003 408 1003 q 276 967 310 1003 q 241 878 241 931 q 276 789 241 825 q 359 753 310 753 q 442 789 408 753 q 476 878 476 825 q 442 967 476 931 m 359 1141 q 538 1066 463 1141 q 615 885 612 991 l 615 878 l 615 871 q 538 690 612 766 q 359 614 463 614 q 178 692 252 614 q 103 878 103 770 q 178 1064 103 986 q 359 1141 252 1141 z "},"&":{"ha":1409,"x_min":35,"x_max":1369,"o":"m 555 -322 q 307 -255 423 -320 q 119 -78 190 -191 q 42 216 35 57 q 146 503 50 376 q 272 620 199 572 q 428 690 345 668 l 360 805 l 360 1111 l 1152 1111 l 1152 796 l 732 796 l 1369 -277 l 1002 -277 l 938 -168 q 653 -315 821 -286 q 555 -322 602 -323 m 607 389 q 490 380 547 401 q 397 312 433 359 q 356 202 359 262 q 386 90 353 142 q 478 11 419 37 q 601 -4 537 -15 q 701 41 658 5 q 762 129 743 77 l 607 389 z "},"'":{"ha":378,"x_min":41,"x_max":337,"o":"m 41 1109 l 337 1109 l 337 865 l 174 592 l 41 592 l 41 1109 z "},"(":{"ha":740,"x_min":40,"x_max":700,"o":"m 698 1198 l 698 884 q 557 852 614 884 q 454 757 500 821 q 383 607 409 695 q 357 426 357 519 q 381 245 356 333 q 450 97 406 158 q 554 1 496 33 q 700 -30 612 -30 l 700 -345 q 411 -274 543 -345 q 195 -87 279 -204 q 78 154 116 21 q 41 428 40 287 q 82 701 43 569 q 199 941 121 833 q 413 1128 283 1058 q 698 1198 543 1198 z "},")":{"ha":740,"x_min":41,"x_max":701,"o":"m 43 1198 l 43 884 q 184 852 127 884 q 288 757 241 821 q 358 607 332 695 q 385 426 384 519 q 360 245 385 333 q 292 97 336 158 q 187 1 245 33 q 41 -30 129 -30 l 41 -345 q 330 -274 198 -345 q 547 -87 463 -204 q 663 154 625 21 q 700 428 701 287 q 660 701 699 569 q 543 941 621 833 q 328 1128 458 1058 q 43 1198 198 1198 z "},"*":{"ha":513,"x_min":41,"x_max":473,"o":"m 174 1111 l 341 1111 l 341 1036 l 441 1055 l 473 890 l 385 873 l 458 783 l 328 677 l 258 763 l 187 677 l 57 783 l 131 873 l 41 890 l 74 1055 l 174 1036 l 174 1111 z "},"+":{"ha":826,"x_min":41,"x_max":785,"o":"m 256 811 l 571 811 l 571 597 l 785 597 l 785 282 l 571 282 l 571 68 l 256 68 l 256 282 l 41 282 l 41 597 l 256 597 l 256 811 z "},",":{"ha":378,"x_min":41,"x_max":337,"o":"m 41 7 l 337 7 l 337 -237 l 174 -511 l 41 -511 l 41 7 z "},"-":{"ha":826,"x_min":41,"x_max":785,"o":"m 41 561 l 785 561 l 785 245 l 41 245 l 41 561 z "},".":{"ha":378,"x_min":41,"x_max":337,"o":"m 41 7 l 337 7 l 337 -278 l 41 -278 l 41 7 z "},"/":{"ha":1072,"x_min":41,"x_max":1031,"o":"m 646 1111 l 1031 1111 l 427 -278 l 41 -278 l 646 1111 z "},":":{"ha":393,"x_min":41,"x_max":337,"o":"m 41 488 l 337 488 l 337 204 l 41 204 l 41 488 m 41 7 l 337 7 l 337 -278 l 41 -278 l 41 7 z "},";":{"ha":407,"x_min":41,"x_max":337,"o":"m 41 7 l 337 7 l 337 -237 l 174 -511 l 41 -511 l 41 7 m 41 488 l 337 488 l 337 204 l 41 204 l 41 488 z "},"<":{"ha":614,"x_min":41,"x_max":573,"o":"m 363 705 l 572 564 l 348 234 l 573 -96 l 364 -238 l 41 234 l 363 705 z "},"=":{"ha":826,"x_min":41,"x_max":785,"o":"m 41 380 l 785 380 l 785 65 l 41 65 l 41 380 m 41 728 l 785 728 l 785 412 l 41 412 l 41 728 z "},">":{"ha":614,"x_min":41,"x_max":573,"o":"m 252 705 l 43 564 l 267 234 l 41 -96 l 250 -238 l 573 234 l 252 705 z "},"?":{"ha":958,"x_min":41,"x_max":918,"o":"m 500 1111 q 774 1013 659 1107 q 879 876 840 958 q 918 700 918 793 q 881 533 918 612 q 787 397 844 454 q 763 375 775 385 q 738 354 751 364 q 715 335 725 343 q 689 316 705 327 q 666 300 674 306 q 641 284 657 294 q 617 269 624 273 q 593 254 611 265 q 570 241 574 243 q 414 130 450 168 q 382 90 390 106 q 374 47 374 74 l 60 47 q 96 214 60 136 q 190 351 132 293 q 267 417 222 385 q 332 464 311 450 q 407 510 354 477 q 564 620 528 584 q 595 659 588 644 q 603 700 603 674 q 596 743 603 730 q 574 770 589 757 q 488 796 540 797 q 397 763 432 795 q 357 662 359 729 l 41 672 q 83 855 44 770 q 187 998 122 941 q 481 1111 310 1107 l 500 1111 m 65 7 l 361 7 l 361 -278 l 65 -278 l 65 7 z "},"@":{"ha":1458,"x_min":41,"x_max":1418,"o":"m 466 1057 q 529 1084 466 1057 q 730 1111 593 1111 q 994 1057 867 1111 q 1217 902 1120 1002 q 1366 671 1314 802 q 1418 400 1418 541 q 1329 49 1418 212 q 1308 27 1322 37 q 1279 14 1293 17 l 970 -39 q 958 -40 966 -40 q 918 -25 937 -40 q 892 9 898 -11 l 843 173 l 617 173 l 568 9 l 435 49 l 656 792 q 682 827 663 812 q 723 842 702 842 l 736 842 q 777 827 758 842 q 803 792 797 812 l 1007 108 l 1221 145 q 1279 400 1279 267 q 1237 620 1279 515 q 1118 806 1195 725 q 940 929 1040 886 q 730 972 839 972 q 520 929 621 972 q 342 806 420 886 q 223 620 265 725 q 180 400 180 514 q 223 181 180 286 q 342 -5 265 75 q 520 -129 420 -85 q 730 -172 621 -172 l 730 -311 q 466 -257 593 -311 q 242 -102 339 -202 q 94 129 146 -1 q 41 400 41 259 q 94 671 41 541 q 242 902 146 802 q 466 1057 339 1002 m 661 322 l 798 322 l 730 552 l 661 322 z "},"A":{"ha":1518,"x_min":41,"x_max":1477,"o":"m 566 1111 l 952 1111 l 1477 -278 l 1140 -278 l 1033 5 l 486 5 l 378 -278 l 41 -278 l 566 1111 m 604 321 l 914 321 l 760 730 l 604 321 z "},"B":{"ha":1132,"x_min":41,"x_max":1092,"o":"m 570 576 q 681 612 646 576 q 707 684 709 640 q 702 726 707 708 q 684 761 697 743 q 642 787 671 778 q 570 796 613 796 l 357 796 l 357 576 l 570 576 m 570 260 l 357 260 l 357 37 l 605 37 q 684 44 651 37 q 734 61 717 51 q 761 87 751 71 q 773 116 771 103 q 775 146 775 129 q 772 178 775 163 q 758 208 768 192 q 729 235 747 224 q 680 253 711 245 q 605 260 648 260 l 570 260 m 951 446 q 1053 310 1016 387 q 1090 151 1089 233 q 1056 -8 1092 69 q 957 -145 1020 -86 q 802 -241 894 -205 q 605 -277 709 -277 l 357 -277 l 357 -278 l 41 -278 l 41 -277 l 41 37 l 41 260 l 41 576 l 41 796 l 41 1111 l 357 1111 l 570 1111 q 752 1075 667 1111 q 896 979 838 1038 q 988 843 954 920 q 1023 688 1022 767 q 951 446 1025 555 z "},"C":{"ha":1326,"x_min":33,"x_max":1285,"o":"m 719 1123 q 987 1072 857 1124 q 1215 917 1116 1019 l 989 697 q 792 804 905 783 q 574 774 680 825 q 409 616 469 723 q 358 385 349 509 q 442 166 368 261 q 629 39 517 72 q 849 45 741 7 q 1027 183 958 84 l 1285 2 q 953 -251 1158 -177 q 540 -263 748 -324 q 197 -30 332 -202 q 44 361 61 142 q 78 642 33 506 q 215 887 122 779 q 437 1057 309 996 q 719 1123 569 1121 z "},"D":{"ha":1242,"x_min":41,"x_max":1203,"o":"m 357 796 l 357 37 l 503 37 q 789 153 685 37 q 861 274 836 204 q 887 418 886 343 q 863 562 888 492 q 793 681 839 631 q 503 796 690 796 l 357 796 m 41 796 l 41 1111 l 357 1111 l 503 1111 q 801 1053 665 1111 q 1028 891 937 994 q 1159 670 1116 793 q 1202 416 1203 547 q 1156 162 1200 285 q 1024 -58 1112 39 q 797 -219 932 -160 q 503 -277 663 -277 l 357 -277 l 357 -278 l 41 -278 l 41 -277 l 41 37 l 41 796 z "},"E":{"ha":1100,"x_min":41,"x_max":1059,"o":"m 41 796 l 41 1111 l 357 1111 l 1059 1111 l 1059 796 l 357 796 l 357 574 l 1011 574 l 1011 259 l 357 259 l 357 37 l 1059 37 l 1059 -278 l 357 -278 l 41 -278 l 41 37 l 41 259 l 41 574 l 41 796 z "},"F":{"ha":1100,"x_min":41,"x_max":1059,"o":"m 41 796 l 41 1111 l 357 1111 l 1059 1111 l 1059 796 l 357 796 l 357 574 l 1011 574 l 1011 259 l 357 259 l 357 -278 l 41 -278 l 41 259 l 41 574 l 41 796 z "},"G":{"ha":1348,"x_min":28,"x_max":1308,"o":"m 721 1111 q 987 1059 859 1112 q 1215 905 1116 1006 l 989 685 q 793 791 905 770 q 576 762 681 812 q 410 606 470 712 q 357 377 349 500 q 439 158 366 254 q 624 28 513 63 q 822 24 724 -3 q 993 129 920 52 l 993 237 l 652 237 l 652 552 l 1308 552 l 1308 20 l 1278 -21 q 943 -267 1149 -197 q 531 -273 737 -336 q 192 -36 326 -209 q 43 356 58 137 q 137 764 28 575 q 441 1046 246 954 q 721 1111 574 1109 z "},"H":{"ha":1141,"x_min":41,"x_max":1100,"o":"m 785 1111 l 1100 1111 l 1100 574 l 1100 259 l 1100 -278 l 785 -278 l 785 259 l 357 259 l 357 -278 l 41 -278 l 41 1111 l 357 1111 l 357 574 l 785 574 l 785 1111 z "},"I":{"ha":696,"x_min":41,"x_max":655,"o":"m 41 1111 l 655 1111 l 655 796 l 506 796 l 506 37 l 655 37 l 655 -278 l 41 -278 l 41 37 l 191 37 l 191 796 l 41 796 l 41 1111 z "},"J":{"ha":1019,"x_min":41,"x_max":979,"o":"m 664 1111 l 979 1111 l 979 145 q 937 -46 979 43 q 825 -195 896 -136 q 510 -304 694 -304 q 195 -195 327 -304 q 83 -46 125 -136 q 41 145 41 43 l 357 145 q 367 85 357 106 q 397 47 376 64 q 510 11 440 11 q 623 47 581 11 q 654 85 644 64 q 664 145 664 106 l 664 1111 z "},"K":{"ha":1330,"x_min":41,"x_max":1289,"o":"m 41 1111 l 357 1111 l 357 283 l 866 1111 l 1236 1111 l 885 541 l 1289 -278 l 938 -278 l 690 224 l 380 -278 l 41 -278 l 41 1111 z "},"L":{"ha":1108,"x_min":41,"x_max":1067,"o":"m 41 1111 l 357 1111 l 357 37 l 1067 37 l 1067 -278 l 41 -278 l 41 1111 z "},"M":{"ha":1604,"x_min":41,"x_max":1564,"o":"m 41 1111 l 425 1111 l 803 338 l 1181 1111 l 1564 1111 l 1564 -278 l 1249 -278 l 1249 533 l 937 -104 l 803 -104 l 669 -104 l 357 533 l 357 -278 l 41 -278 l 41 1111 z "},"N":{"ha":1436,"x_min":41,"x_max":1394,"o":"m 41 1111 l 409 1111 l 1080 140 l 1080 1111 l 1394 1111 l 1394 -279 l 987 -279 l 357 633 l 357 -278 l 41 -278 l 41 1111 z "},"O":{"ha":1457,"x_min":41,"x_max":1416,"o":"m 729 631 l 956 404 l 729 176 l 501 404 l 729 631 m 729 809 q 543 758 628 809 q 407 615 457 706 q 357 416 357 525 q 386 265 357 338 q 468 138 415 193 q 588 54 521 83 q 729 24 656 24 q 870 54 802 24 q 990 138 937 83 q 1072 265 1043 193 q 1101 416 1101 337 q 1072 568 1101 496 q 990 696 1043 641 q 870 780 937 751 q 729 809 802 809 m 729 1124 q 994 1069 867 1124 q 1217 915 1120 1015 q 1364 686 1312 815 q 1416 416 1416 556 q 1364 148 1416 277 q 1217 -81 1313 18 q 994 -236 1120 -181 q 729 -290 867 -290 q 464 -236 591 -290 q 241 -81 337 -181 q 93 148 144 18 q 41 416 41 277 q 96 689 41 559 q 242 915 150 820 q 461 1067 334 1010 q 729 1124 589 1124 z "},"P":{"ha":1132,"x_min":41,"x_max":1091,"o":"m 357 205 l 357 -278 l 41 -278 l 41 1111 l 290 1111 l 357 1111 l 643 1111 q 832 1072 744 1111 q 979 965 921 1032 q 1091 659 1091 836 q 980 352 1091 479 q 832 245 921 284 q 643 205 743 205 l 357 205 m 357 521 l 643 521 q 704 531 682 521 q 743 559 726 541 q 777 659 777 598 q 743 758 777 718 q 704 787 726 777 q 643 796 682 796 l 357 796 l 357 521 z "},"Q":{"ha":1457,"x_min":41,"x_max":1416,"o":"m 729 631 l 956 404 l 729 176 l 501 404 l 729 631 m 729 809 q 543 758 628 809 q 407 615 457 706 q 357 416 357 525 q 386 265 357 338 q 468 138 415 193 q 588 54 521 83 q 729 24 656 24 q 870 54 802 24 q 990 138 937 83 q 1072 265 1043 193 q 1101 416 1101 337 q 1072 568 1101 496 q 990 696 1043 641 q 870 780 937 751 q 729 809 802 809 m 729 1124 q 994 1069 867 1124 q 1217 915 1120 1015 q 1364 686 1312 815 q 1416 416 1416 556 q 1364 148 1416 277 q 1217 -81 1313 18 q 943 -255 1102 -201 q 956 -309 948 -290 q 971 -342 964 -330 q 996 -374 978 -355 q 1039 -409 1013 -393 q 1109 -444 1064 -424 q 1216 -483 1154 -463 l 1120 -783 q 818 -628 932 -723 q 661 -421 704 -534 q 621 -281 635 -353 q 415 -213 513 -264 q 241 -81 318 -161 q 93 148 144 18 q 41 416 41 277 q 96 689 41 559 q 242 915 150 820 q 461 1067 334 1010 q 729 1124 589 1124 z "},"R":{"ha":1169,"x_min":41,"x_max":1129,"o":"m 484 488 l 643 488 q 702 497 682 488 q 740 528 722 507 q 777 642 777 571 q 740 755 777 712 q 702 786 722 777 q 643 796 681 796 l 357 796 l 357 488 l 484 488 m 484 172 l 357 172 l 357 -278 l 41 -278 l 41 1111 l 264 1111 l 357 1111 l 643 1111 q 834 1069 745 1111 q 983 957 924 1027 q 1091 642 1091 826 q 983 327 1091 458 q 881 239 942 277 q 970 86 926 174 q 1080 -167 1014 -1 q 1129 -278 1093 -199 l 785 -278 q 688 -56 728 -136 q 570 124 629 64 q 484 172 524 172 z "},"S":{"ha":1304,"x_min":41,"x_max":1263,"o":"m 643 1141 q 1022 1046 861 1141 q 1175 898 1114 992 q 1236 693 1236 804 l 920 693 q 909 738 920 722 q 861 776 897 754 q 764 812 823 798 q 643 827 705 827 q 521 812 581 827 q 424 776 462 798 q 376 739 388 755 q 365 693 365 722 q 367 664 365 674 q 372 651 370 654 q 383 640 374 648 q 487 592 411 613 q 687 556 540 577 q 911 516 833 535 q 1139 414 1057 481 q 1229 297 1194 370 q 1263 149 1263 225 q 1201 -63 1263 34 q 1043 -215 1138 -159 q 650 -308 878 -311 q 260 -208 424 -304 q 103 -58 165 -153 q 41 149 41 36 l 357 149 q 370 104 357 121 q 421 63 382 86 q 525 23 462 39 q 654 7 589 7 q 783 20 720 6 q 885 57 846 34 q 936 97 924 79 q 948 149 948 115 q 948 159 948 154 q 946 166 949 165 q 940 170 943 168 q 838 210 912 193 q 645 242 797 220 q 403 288 492 264 q 168 410 253 330 q 82 536 113 461 q 50 693 50 611 q 111 899 50 804 q 263 1047 172 993 q 643 1141 422 1141 z "},"T":{"ha":1229,"x_min":41,"x_max":1189,"o":"m 41 1111 l 1189 1111 l 1189 796 l 772 796 l 772 -278 l 458 -278 l 458 796 l 41 796 l 41 1111 z "},"U":{"ha":1283,"x_min":41,"x_max":1242,"o":"m 41 1111 l 357 1111 l 357 319 q 445 87 357 170 q 642 14 524 14 q 839 87 760 14 q 927 319 927 170 l 927 1111 l 1242 1111 l 1242 319 q 1192 58 1242 178 q 1053 -143 1141 -62 q 862 -261 969 -221 q 642 -300 755 -300 q 422 -261 528 -300 q 231 -143 315 -221 q 92 58 142 -61 q 41 319 41 178 l 41 1111 z "},"V":{"ha":1628,"x_min":41,"x_max":1587,"o":"m 1242 1111 l 1587 1111 l 973 -279 l 870 -279 l 758 -279 l 656 -279 l 41 1111 l 386 1111 l 814 141 l 1242 1111 z "},"W":{"ha":2244,"x_min":41,"x_max":2203,"o":"m 1859 1111 l 2203 1111 l 1589 -279 l 1487 -279 l 1374 -279 l 1272 -279 l 1122 59 l 973 -279 l 870 -279 l 758 -279 l 656 -279 l 41 1111 l 386 1111 l 814 141 l 950 449 l 658 1111 l 1002 1111 l 1122 839 l 1242 1111 l 1587 1111 l 1295 449 l 1430 141 l 1859 1111 z "},"X":{"ha":1641,"x_min":41,"x_max":1601,"o":"m 41 1111 l 449 1111 l 821 657 l 1194 1111 l 1601 1111 l 1025 409 l 1588 -278 l 1181 -278 l 821 161 l 462 -278 l 54 -278 l 618 409 l 41 1111 z "},"Y":{"ha":1311,"x_min":41,"x_max":1270,"o":"m 41 1111 l 399 1111 l 656 635 l 912 1111 l 1270 1111 l 813 263 l 813 -278 l 498 -278 l 498 263 l 41 1111 z "},"Z":{"ha":1283,"x_min":41,"x_max":1243,"o":"m 42 1111 l 1212 1111 l 1212 774 l 503 37 l 1243 37 l 1243 -278 l 41 -278 l 41 13 l 796 796 l 42 796 l 42 1111 z "},"[":{"ha":618,"x_min":41,"x_max":577,"o":"m 41 1198 l 576 1198 l 576 884 l 357 884 l 357 -30 l 577 -30 l 577 -345 l 41 -345 l 41 1198 z "},"\\":{"ha":1072,"x_min":41,"x_max":1031,"o":"m 427 1111 l 41 1111 l 646 -278 l 1031 -278 l 427 1111 z "},"]":{"ha":618,"x_min":41,"x_max":577,"o":"m 577 1198 l 43 1198 l 43 884 l 262 884 l 262 -30 l 41 -30 l 41 -345 l 577 -345 l 577 1198 z "},"^":{"ha":1518,"x_min":476,"x_max":1003,"o":"m 604 1146 l 739 1305 l 876 1146 l 1003 1255 l 739 1563 l 476 1255 l 604 1146 z "},"_":{"ha":826,"x_min":41,"x_max":785,"o":"m 41 36 l 785 36 l 785 -279 l 41 -279 l 41 36 z "},"`":{"ha":464,"x_min":41,"x_max":424,"o":"m 334 1111 l 424 1005 l 131 759 l 41 865 l 334 1111 z "},"a":{"ha":1518,"x_min":41,"x_max":1477,"o":"m 566 1111 l 952 1111 l 1477 -278 l 1140 -278 l 1033 5 l 486 5 l 378 -278 l 41 -278 l 566 1111 m 604 321 l 914 321 l 760 730 l 604 321 z "},"b":{"ha":1132,"x_min":41,"x_max":1092,"o":"m 570 576 q 681 612 646 576 q 707 684 709 640 q 702 726 707 708 q 684 761 697 743 q 642 787 671 778 q 570 796 613 796 l 357 796 l 357 576 l 570 576 m 570 260 l 357 260 l 357 37 l 605 37 q 684 44 651 37 q 734 61 717 51 q 761 87 751 71 q 773 116 771 103 q 775 146 775 129 q 772 178 775 163 q 758 208 768 192 q 729 235 747 224 q 680 253 711 245 q 605 260 648 260 l 570 260 m 951 446 q 1053 310 1016 387 q 1090 151 1089 233 q 1056 -8 1092 69 q 957 -145 1020 -86 q 802 -241 894 -205 q 605 -277 709 -277 l 357 -277 l 357 -278 l 41 -278 l 41 -277 l 41 37 l 41 260 l 41 576 l 41 796 l 41 1111 l 357 1111 l 570 1111 q 752 1075 667 1111 q 896 979 838 1038 q 988 843 954 920 q 1023 688 1022 767 q 951 446 1025 555 z "},"c":{"ha":1326,"x_min":33,"x_max":1285,"o":"m 719 1123 q 987 1072 857 1124 q 1215 917 1116 1019 l 989 697 q 792 804 905 783 q 574 774 680 825 q 409 616 469 723 q 358 385 349 509 q 442 166 368 261 q 629 39 517 72 q 849 45 741 7 q 1027 183 958 84 l 1285 2 q 953 -251 1158 -177 q 540 -263 748 -324 q 197 -30 332 -202 q 44 361 61 142 q 78 642 33 506 q 215 887 122 779 q 437 1057 309 996 q 719 1123 569 1121 z "},"d":{"ha":1242,"x_min":41,"x_max":1203,"o":"m 357 796 l 357 37 l 503 37 q 789 153 685 37 q 861 274 836 204 q 887 418 886 343 q 863 562 888 492 q 793 681 839 631 q 503 796 690 796 l 357 796 m 41 796 l 41 1111 l 357 1111 l 503 1111 q 801 1053 665 1111 q 1028 891 937 994 q 1159 670 1116 793 q 1202 416 1203 547 q 1156 162 1200 285 q 1024 -58 1112 39 q 797 -219 932 -160 q 503 -277 663 -277 l 357 -277 l 357 -278 l 41 -278 l 41 -277 l 41 37 l 41 796 z "},"e":{"ha":1100,"x_min":41,"x_max":1059,"o":"m 41 796 l 41 1111 l 357 1111 l 1059 1111 l 1059 796 l 357 796 l 357 574 l 1011 574 l 1011 259 l 357 259 l 357 37 l 1059 37 l 1059 -278 l 357 -278 l 41 -278 l 41 37 l 41 259 l 41 574 l 41 796 z "},"f":{"ha":1100,"x_min":41,"x_max":1059,"o":"m 41 796 l 41 1111 l 357 1111 l 1059 1111 l 1059 796 l 357 796 l 357 574 l 1011 574 l 1011 259 l 357 259 l 357 -278 l 41 -278 l 41 259 l 41 574 l 41 796 z "},"g":{"ha":1348,"x_min":28,"x_max":1308,"o":"m 721 1111 q 987 1059 859 1112 q 1215 905 1116 1006 l 989 685 q 793 791 905 770 q 576 762 681 812 q 410 606 470 712 q 357 377 349 500 q 439 158 366 254 q 624 28 513 63 q 822 24 724 -3 q 993 129 920 52 l 993 237 l 652 237 l 652 552 l 1308 552 l 1308 20 l 1278 -21 q 943 -267 1149 -197 q 531 -273 737 -336 q 192 -36 326 -209 q 43 356 58 137 q 137 764 28 575 q 441 1046 246 954 q 721 1111 574 1109 z "},"h":{"ha":1141,"x_min":41,"x_max":1100,"o":"m 785 1111 l 1100 1111 l 1100 574 l 1100 259 l 1100 -278 l 785 -278 l 785 259 l 357 259 l 357 -278 l 41 -278 l 41 1111 l 357 1111 l 357 574 l 785 574 l 785 1111 z "},"i":{"ha":696,"x_min":41,"x_max":655,"o":"m 41 1111 l 655 1111 l 655 796 l 506 796 l 506 37 l 655 37 l 655 -278 l 41 -278 l 41 37 l 191 37 l 191 796 l 41 796 l 41 1111 z "},"j":{"ha":1019,"x_min":41,"x_max":979,"o":"m 664 1111 l 979 1111 l 979 145 q 937 -46 979 43 q 825 -195 896 -136 q 510 -304 694 -304 q 195 -195 327 -304 q 83 -46 125 -136 q 41 145 41 43 l 357 145 q 367 85 357 106 q 397 47 376 64 q 510 11 440 11 q 623 47 581 11 q 654 85 644 64 q 664 145 664 106 l 664 1111 z "},"k":{"ha":1330,"x_min":41,"x_max":1289,"o":"m 41 1111 l 357 1111 l 357 283 l 866 1111 l 1236 1111 l 885 541 l 1289 -278 l 938 -278 l 690 224 l 380 -278 l 41 -278 l 41 1111 z "},"l":{"ha":1108,"x_min":41,"x_max":1067,"o":"m 41 1111 l 357 1111 l 357 37 l 1067 37 l 1067 -278 l 41 -278 l 41 1111 z "},"m":{"ha":1604,"x_min":41,"x_max":1564,"o":"m 41 1111 l 425 1111 l 803 338 l 1181 1111 l 1564 1111 l 1564 -278 l 1249 -278 l 1249 533 l 937 -104 l 803 -104 l 669 -104 l 357 533 l 357 -278 l 41 -278 l 41 1111 z "},"n":{"ha":1436,"x_min":41,"x_max":1394,"o":"m 41 1111 l 409 1111 l 1080 140 l 1080 1111 l 1394 1111 l 1394 -279 l 987 -279 l 357 633 l 357 -278 l 41 -278 l 41 1111 z "},"o":{"ha":1457,"x_min":41,"x_max":1416,"o":"m 729 631 l 956 404 l 729 176 l 501 404 l 729 631 m 729 809 q 543 758 628 809 q 407 615 457 706 q 357 416 357 525 q 386 265 357 338 q 468 138 415 193 q 588 54 521 83 q 729 24 656 24 q 870 54 802 24 q 990 138 937 83 q 1072 265 1043 193 q 1101 416 1101 337 q 1072 568 1101 496 q 990 696 1043 641 q 870 780 937 751 q 729 809 802 809 m 729 1124 q 994 1069 867 1124 q 1217 915 1120 1015 q 1364 686 1312 815 q 1416 416 1416 556 q 1364 148 1416 277 q 1217 -81 1313 18 q 994 -236 1120 -181 q 729 -290 867 -290 q 464 -236 591 -290 q 241 -81 337 -181 q 93 148 144 18 q 41 416 41 277 q 96 689 41 559 q 242 915 150 820 q 461 1067 334 1010 q 729 1124 589 1124 z "},"p":{"ha":1132,"x_min":41,"x_max":1091,"o":"m 357 205 l 357 -278 l 41 -278 l 41 1111 l 290 1111 l 357 1111 l 643 1111 q 832 1072 744 1111 q 979 965 921 1032 q 1091 659 1091 836 q 980 352 1091 479 q 832 245 921 284 q 643 205 743 205 l 357 205 m 357 521 l 643 521 q 704 531 682 521 q 743 559 726 541 q 777 659 777 598 q 743 758 777 718 q 704 787 726 777 q 643 796 682 796 l 357 796 l 357 521 z "},"q":{"ha":1457,"x_min":41,"x_max":1416,"o":"m 729 631 l 956 404 l 729 176 l 501 404 l 729 631 m 729 809 q 543 758 628 809 q 407 615 457 706 q 357 416 357 525 q 386 265 357 338 q 468 138 415 193 q 588 54 521 83 q 729 24 656 24 q 870 54 802 24 q 990 138 937 83 q 1072 265 1043 193 q 1101 416 1101 337 q 1072 568 1101 496 q 990 696 1043 641 q 870 780 937 751 q 729 809 802 809 m 729 1124 q 994 1069 867 1124 q 1217 915 1120 1015 q 1364 686 1312 815 q 1416 416 1416 556 q 1364 148 1416 277 q 1217 -81 1313 18 q 943 -255 1102 -201 q 956 -309 948 -290 q 971 -342 964 -330 q 996 -374 978 -355 q 1039 -409 1013 -393 q 1109 -444 1064 -424 q 1216 -483 1154 -463 l 1120 -783 q 818 -628 932 -723 q 661 -421 704 -534 q 621 -281 635 -353 q 415 -213 513 -264 q 241 -81 318 -161 q 93 148 144 18 q 41 416 41 277 q 96 689 41 559 q 242 915 150 820 q 461 1067 334 1010 q 729 1124 589 1124 z "},"r":{"ha":1169,"x_min":41,"x_max":1129,"o":"m 484 488 l 643 488 q 702 497 682 488 q 740 528 722 507 q 777 642 777 571 q 740 755 777 712 q 702 786 722 777 q 643 796 681 796 l 357 796 l 357 488 l 484 488 m 484 172 l 357 172 l 357 -278 l 41 -278 l 41 1111 l 264 1111 l 357 1111 l 643 1111 q 834 1069 745 1111 q 983 957 924 1027 q 1091 642 1091 826 q 983 327 1091 458 q 881 239 942 277 q 970 86 926 174 q 1080 -167 1014 -1 q 1129 -278 1093 -199 l 785 -278 q 688 -56 728 -136 q 570 124 629 64 q 484 172 524 172 z "},"s":{"ha":1048,"x_min":41,"x_max":1008,"o":"m 1008 1111 l 1008 796 q 898 784 940 796 q 834 754 855 772 q 789 699 812 735 q 735 576 760 654 q 686 381 711 498 q 631 161 651 223 q 533 -44 593 43 q 331 -216 460 -151 q 41 -281 203 -281 l 41 35 q 133 41 95 35 q 196 61 170 47 q 239 91 222 75 q 273 134 255 107 q 378 449 328 214 q 387 489 380 454 q 396 532 395 524 q 406 573 398 541 q 417 617 413 605 q 429 659 420 629 q 444 703 437 688 q 459 745 450 719 q 479 789 469 771 q 500 830 488 808 q 526 872 512 852 q 723 1045 596 979 q 1008 1111 849 1111 z "},"t":{"ha":1229,"x_min":41,"x_max":1189,"o":"m 41 1111 l 1189 1111 l 1189 796 l 772 796 l 772 -278 l 458 -278 l 458 796 l 41 796 l 41 1111 z "},"u":{"ha":1283,"x_min":41,"x_max":1242,"o":"m 41 1111 l 357 1111 l 357 319 q 445 87 357 170 q 642 14 524 14 q 839 87 760 14 q 927 319 927 170 l 927 1111 l 1242 1111 l 1242 319 q 1192 58 1242 178 q 1053 -143 1141 -62 q 862 -261 969 -221 q 642 -300 755 -300 q 422 -261 528 -300 q 231 -143 315 -221 q 92 58 142 -61 q 41 319 41 178 l 41 1111 z "},"v":{"ha":1628,"x_min":41,"x_max":1587,"o":"m 1242 1111 l 1587 1111 l 973 -279 l 870 -279 l 758 -279 l 656 -279 l 41 1111 l 386 1111 l 814 141 l 1242 1111 z "},"w":{"ha":2244,"x_min":41,"x_max":2203,"o":"m 1859 1111 l 2203 1111 l 1589 -279 l 1487 -279 l 1374 -279 l 1272 -279 l 1122 59 l 973 -279 l 870 -279 l 758 -279 l 656 -279 l 41 1111 l 386 1111 l 814 141 l 950 449 l 658 1111 l 1002 1111 l 1122 839 l 1242 1111 l 1587 1111 l 1295 449 l 1430 141 l 1859 1111 z "},"x":{"ha":1641,"x_min":41,"x_max":1601,"o":"m 41 1111 l 449 1111 l 821 657 l 1194 1111 l 1601 1111 l 1025 409 l 1588 -278 l 1181 -278 l 821 161 l 462 -278 l 54 -278 l 618 409 l 41 1111 z "},"y":{"ha":1311,"x_min":41,"x_max":1270,"o":"m 41 1111 l 399 1111 l 656 635 l 912 1111 l 1270 1111 l 813 263 l 813 -278 l 498 -278 l 498 263 l 41 1111 z "},"z":{"ha":1283,"x_min":41,"x_max":1243,"o":"m 42 1111 l 1212 1111 l 1212 774 l 503 37 l 1243 37 l 1243 -278 l 41 -278 l 41 13 l 796 796 l 42 796 l 42 1111 z "},"{":{"ha":785,"x_min":41,"x_max":744,"o":"m 209 1198 l 743 1198 l 743 884 l 524 884 l 524 734 l 524 526 l 445 427 l 524 329 l 524 120 l 524 -30 l 744 -30 l 744 -345 l 209 -345 l 209 -33 l 209 120 l 209 218 l 41 427 l 209 636 l 209 734 l 209 888 l 209 1198 z "},"|":{"ha":312,"x_min":41,"x_max":272,"o":"m 41 1111 l 272 1111 l 272 -278 l 41 -278 l 41 1111 z "},"}":{"ha":785,"x_min":41,"x_max":744,"o":"m 577 1198 l 43 1198 l 43 884 l 262 884 l 262 734 l 262 526 l 341 427 l 262 329 l 262 120 l 262 -30 l 41 -30 l 41 -345 l 577 -345 l 577 -33 l 577 120 l 577 218 l 744 427 l 577 636 l 577 734 l 577 888 l 577 1198 z "},"~":{"ha":1518,"x_min":473,"x_max":1140,"o":"m 661 1516 q 688 1514 674 1516 q 738 1501 712 1510 q 778 1485 764 1491 q 819 1462 791 1478 q 851 1444 847 1447 q 901 1422 880 1429 q 929 1416 923 1415 q 985 1499 954 1421 l 1140 1436 q 960 1251 1075 1272 q 926 1249 943 1249 q 897 1250 909 1249 q 867 1256 884 1251 q 842 1263 850 1261 q 816 1275 833 1266 q 794 1286 799 1283 q 772 1297 789 1289 q 660 1349 682 1345 q 637 1350 646 1354 q 609 1318 629 1346 l 473 1417 q 559 1491 508 1466 q 661 1516 610 1517 z "},"":{"ha":83,"x_min":0,"x_max":0,"o":""},"":{"ha":83,"x_min":0,"x_max":0,"o":""},"":{"ha":83,"x_min":0,"x_max":0,"o":""},"":{"ha":83,"x_min":0,"x_max":0,"o":""},"":{"ha":83,"x_min":0,"x_max":0,"o":""},"":{"ha":83,"x_min":0,"x_max":0,"o":""},"":{"ha":83,"x_min":0,"x_max":0,"o":""},"":{"ha":83,"x_min":0,"x_max":0,"o":""},"":{"ha":83,"x_min":0,"x_max":0,"o":""},"":{"ha":83,"x_min":0,"x_max":0,"o":""},"":{"ha":83,"x_min":0,"x_max":0,"o":""},"":{"ha":83,"x_min":0,"x_max":0,"o":""},"":{"ha":83,"x_min":0,"x_max":0,"o":""},"":{"ha":83,"x_min":0,"x_max":0,"o":""},"":{"ha":83,"x_min":0,"x_max":0,"o":""},"":{"ha":83,"x_min":0,"x_max":0,"o":""},"":{"ha":83,"x_min":0,"x_max":0,"o":""},"":{"ha":83,"x_min":0,"x_max":0,"o":""},"":{"ha":83,"x_min":0,"x_max":0,"o":""},"":{"ha":83,"x_min":0,"x_max":0,"o":""},"":{"ha":83,"x_min":0,"x_max":0,"o":""},"":{"ha":83,"x_min":0,"x_max":0,"o":""},"":{"ha":83,"x_min":0,"x_max":0,"o":""},"":{"ha":83,"x_min":0,"x_max":0,"o":""},"":{"ha":83,"x_min":0,"x_max":0,"o":""},"":{"ha":83,"x_min":0,"x_max":0,"o":""},"":{"ha":83,"x_min":0,"x_max":0,"o":""},"":{"ha":83,"x_min":0,"x_max":0,"o":""},"":{"ha":83,"x_min":0,"x_max":0,"o":""},"":{"ha":83,"x_min":0,"x_max":0,"o":""}," ":{"ha":83,"x_min":0,"x_max":0,"o":""},"¡":{"ha":397,"x_min":37,"x_max":351,"o":"m 351 -309 l 37 -309 l 37 718 l 351 718 l 351 -309 m 45 1088 l 340 1088 l 340 804 l 45 804 l 45 1088 z "},"¢":{"ha":943,"x_min":32,"x_max":903,"o":"m 349 1053 l 575 1053 l 575 954 q 854 814 737 933 l 698 662 q 562 736 640 722 q 410 715 484 750 q 295 606 336 680 q 260 446 254 532 q 319 295 267 360 q 448 206 370 229 q 601 210 526 183 q 724 306 676 237 l 903 180 q 761 48 845 99 q 582 -17 677 -3 l 582 -114 l 356 -114 l 356 7 q 140 171 224 56 q 43 429 55 286 q 106 714 32 581 q 316 911 181 846 q 349 926 330 919 l 349 1053 z "},"£":{"ha":1031,"x_min":18,"x_max":991,"o":"m 516 1111 q 689 1069 605 1109 q 839 963 772 1030 q 946 795 905 895 q 991 581 987 696 l 675 572 q 663 667 674 626 q 637 731 652 707 q 599 770 621 755 q 555 790 576 785 q 509 796 534 795 q 452 790 477 797 q 405 765 428 783 q 370 710 382 747 q 357 618 357 673 q 357 422 357 543 l 498 422 l 498 170 l 357 170 q 359 17 359 43 l 971 17 l 971 -298 l 44 -298 l 44 -41 q 43 61 44 -7 q 42 170 42 130 l 18 170 l 18 422 l 42 422 q 43 621 42 545 q 84 822 43 728 q 192 979 125 916 q 343 1078 258 1042 q 516 1111 428 1113 z "},"¤":{"ha":904,"x_min":41,"x_max":863,"o":"m 695 1111 l 863 950 l 747 829 q 791 657 791 748 q 746 484 791 566 l 863 361 l 695 201 l 573 328 q 446 302 511 302 q 323 326 383 302 l 192 201 l 41 357 l 155 466 q 100 657 100 553 q 154 847 100 759 l 41 955 l 192 1111 l 321 988 q 446 1012 380 1012 q 575 986 514 1012 l 695 1111 m 553 772 q 531 795 553 772 q 446 819 509 819 q 338 772 382 819 q 293 657 293 726 q 338 542 293 589 q 446 496 382 496 q 553 542 509 496 q 598 657 598 589 q 553 772 598 726 z "},"¥":{"ha":1311,"x_min":41,"x_max":1270,"o":"m 41 1111 l 399 1111 l 656 635 l 912 1111 l 1270 1111 l 854 339 l 923 339 l 923 86 l 813 86 l 813 56 l 923 56 l 923 -197 l 813 -197 l 813 -278 l 498 -278 l 498 -197 l 366 -197 l 366 56 l 498 56 l 498 86 l 366 86 l 366 339 l 458 339 l 41 1111 z "},"¦":{"ha":83,"x_min":0,"x_max":0,"o":""},"§":{"ha":1459,"x_min":41,"x_max":1419,"o":"m 1419 1111 l 1419 796 q 1309 784 1351 796 q 1245 754 1267 772 q 1200 698 1224 735 q 1147 574 1171 652 q 1097 377 1123 496 q 1042 153 1062 218 q 945 -52 1004 36 q 743 -225 871 -159 q 453 -290 615 -290 l 453 -144 q 270 -252 376 -213 q 41 -290 165 -290 l 41 24 q 157 37 112 24 q 225 69 202 50 q 273 125 248 88 q 378 444 328 206 q 387 484 379 448 q 396 528 395 520 q 406 569 398 535 q 417 613 414 602 q 429 655 420 625 q 444 700 437 685 q 459 742 450 715 q 479 787 469 768 q 500 827 488 805 q 526 870 512 850 q 722 1045 596 979 q 1008 1111 848 1111 l 1008 956 q 1189 1069 1083 1028 q 1419 1111 1295 1111 m 587 42 q 640 73 618 54 q 684 125 662 93 q 789 444 738 204 q 797 479 791 451 q 805 517 803 507 q 813 553 808 527 q 823 592 819 579 q 832 629 826 606 q 844 668 839 652 q 857 705 850 684 q 871 745 863 726 q 888 782 879 764 q 832 751 854 771 q 789 698 811 732 q 735 574 760 652 q 686 377 711 496 q 627 146 650 215 q 587 42 609 90 z "},"¨":{"ha":1518,"x_min":461,"x_max":1053,"o":"m 789 1454 l 1053 1454 l 1053 1192 l 789 1192 l 789 1454 m 461 1454 l 725 1454 l 725 1192 l 461 1192 l 461 1454 z "},"©":{"ha":951,"x_min":41,"x_max":910,"o":"m 490 959 q 684 873 604 956 l 621 812 q 517 868 577 857 q 401 852 456 880 q 314 769 345 825 q 288 648 283 713 q 332 533 292 583 q 430 465 371 483 q 547 469 489 448 q 641 542 604 490 l 713 491 q 576 386 661 416 q 405 381 491 356 q 263 478 319 406 q 199 642 207 550 q 237 812 193 733 q 363 931 282 892 q 490 959 425 961 m 608 996 q 576 1010 608 996 q 476 1023 545 1023 q 344 996 408 1023 q 231 919 280 969 q 156 803 182 869 q 130 665 130 736 q 156 527 130 593 q 231 410 182 460 q 344 333 280 360 q 476 305 408 305 q 608 333 545 305 q 720 410 671 360 q 795 527 769 460 q 822 665 822 593 q 795 803 822 736 q 720 919 769 869 q 608 996 671 969 m 309 1077 q 349 1094 309 1077 q 476 1111 389 1111 q 643 1077 563 1111 q 783 980 722 1043 q 877 836 844 918 q 910 667 909 755 l 910 665 l 910 662 q 877 492 909 574 q 783 349 844 411 q 643 252 722 286 q 476 218 563 218 q 309 252 389 218 q 168 349 229 286 q 74 494 107 412 q 41 665 41 576 q 74 835 41 753 q 168 980 107 917 q 309 1077 229 1043 z "},"ª":{"ha":83,"x_min":0,"x_max":0,"o":""},"«":{"ha":1055,"x_min":41,"x_max":1015,"o":"m 805 705 l 1014 564 l 789 234 l 1015 -96 l 806 -238 l 484 234 l 805 705 m 363 705 l 572 564 l 348 234 l 573 -96 l 364 -238 l 41 234 l 363 705 z "},"¬":{"ha":83,"x_min":0,"x_max":0,"o":""},"­":{"ha":826,"x_min":41,"x_max":785,"o":"m 41 561 l 785 561 l 785 245 l 41 245 l 41 561 z "},"®":{"ha":951,"x_min":41,"x_max":910,"o":"m 608 996 q 576 1010 608 996 q 476 1023 545 1023 q 344 996 408 1023 q 231 919 280 969 q 156 803 182 869 q 130 665 130 736 q 156 527 130 593 q 231 410 182 460 q 344 333 280 360 q 476 305 408 305 q 608 333 545 305 q 720 410 671 360 q 795 527 769 460 q 822 665 822 593 q 795 803 822 736 q 720 919 769 869 q 608 996 671 969 m 309 1077 q 349 1094 309 1077 q 476 1111 389 1111 q 643 1077 563 1111 q 783 980 722 1043 q 877 836 844 918 q 910 667 909 755 l 910 665 l 910 662 q 877 492 909 574 q 783 349 844 411 q 643 252 722 286 q 476 218 563 218 q 309 252 389 218 q 168 349 229 286 q 74 494 107 412 q 41 665 41 576 q 74 835 41 753 q 168 980 107 917 q 309 1077 229 1043 m 447 702 l 508 702 q 545 718 532 702 q 559 762 559 733 q 545 805 559 788 q 508 821 531 821 l 398 821 l 398 702 l 447 702 m 447 581 l 398 581 l 398 409 l 277 409 l 277 941 l 363 941 l 398 941 l 508 941 q 582 925 547 941 q 638 882 616 909 q 680 762 680 832 q 638 641 680 691 q 599 607 622 622 q 633 548 616 582 q 675 452 652 511 q 694 409 681 438 l 562 409 q 525 494 544 455 q 480 563 500 543 q 447 581 462 581 z "},"¯":{"ha":826,"x_min":41,"x_max":785,"o":"m 41 389 l 785 389 l 785 249 l 41 249 l 41 389 z "},"°":{"ha":1518,"x_min":558,"x_max":983,"o":"m 770 1522 q 711 1500 735 1522 q 685 1430 685 1476 q 711 1360 685 1383 q 770 1338 735 1338 q 830 1360 806 1338 q 857 1430 857 1385 q 830 1500 857 1475 q 770 1522 807 1522 m 771 1649 q 917 1593 857 1649 q 983 1430 983 1531 q 917 1267 983 1329 q 771 1211 857 1211 q 625 1267 685 1211 q 558 1430 558 1329 q 625 1594 558 1531 q 771 1649 685 1649 z "},"±":{"ha":83,"x_min":0,"x_max":0,"o":""},"²":{"ha":83,"x_min":0,"x_max":0,"o":""},"³":{"ha":83,"x_min":0,"x_max":0,"o":""},"´":{"ha":1518,"x_min":544,"x_max":926,"o":"m 836 1535 l 926 1430 l 633 1183 l 544 1290 l 836 1535 z "},"µ":{"ha":83,"x_min":0,"x_max":0,"o":""},"¶":{"ha":83,"x_min":0,"x_max":0,"o":""},"·":{"ha":378,"x_min":41,"x_max":337,"o":"m 41 558 l 337 558 l 337 273 l 41 273 l 41 558 z "},"¸":{"ha":83,"x_min":0,"x_max":0,"o":""},"¹":{"ha":83,"x_min":0,"x_max":0,"o":""},"º":{"ha":83,"x_min":0,"x_max":0,"o":""},"»":{"ha":1055,"x_min":41,"x_max":1015,"o":"m 252 705 l 43 564 l 267 234 l 41 -96 l 250 -238 l 573 234 l 252 705 m 694 705 l 484 564 l 709 234 l 484 -96 l 692 -238 l 1015 234 l 694 705 z "},"¼":{"ha":83,"x_min":0,"x_max":0,"o":""},"½":{"ha":83,"x_min":0,"x_max":0,"o":""},"¾":{"ha":83,"x_min":0,"x_max":0,"o":""},"¿":{"ha":958,"x_min":41,"x_max":918,"o":"m 459 -309 q 185 -210 300 -305 q 80 -73 119 -156 q 41 103 41 9 q 78 270 41 191 q 173 406 115 348 q 249 470 205 438 q 314 516 292 503 q 389 562 336 530 q 545 673 509 635 q 577 713 569 697 q 585 756 585 729 l 900 756 q 864 588 900 667 q 770 451 827 509 q 747 429 758 439 q 721 407 735 418 q 698 388 707 395 q 672 369 688 380 q 649 353 655 357 q 623 336 642 348 q 600 322 604 324 q 575 307 596 319 q 553 293 554 294 q 395 183 431 219 q 364 144 372 159 q 357 103 357 129 q 363 59 357 73 q 385 33 370 45 q 472 7 418 5 q 562 39 528 8 q 603 140 601 74 l 918 130 q 876 -53 915 33 q 772 -195 838 -138 q 478 -308 650 -304 q 469 -308 475 -308 q 459 -309 463 -309 m 589 1095 l 885 1095 l 885 810 l 589 810 l 589 1095 z "},"À":{"ha":1518,"x_min":41,"x_max":1477,"o":"m 566 1111 l 952 1111 l 1477 -278 l 1140 -278 l 1033 5 l 486 5 l 378 -278 l 41 -278 l 566 1111 m 633 1535 l 544 1430 l 836 1183 l 926 1290 l 633 1535 m 604 321 l 914 321 l 760 730 l 604 321 z "},"Á":{"ha":1518,"x_min":41,"x_max":1477,"o":"m 566 1111 l 952 1111 l 1477 -278 l 1140 -278 l 1033 5 l 486 5 l 378 -278 l 41 -278 l 566 1111 m 836 1535 l 926 1430 l 633 1183 l 544 1290 l 836 1535 m 604 321 l 914 321 l 760 730 l 604 321 z "},"Â":{"ha":1518,"x_min":41,"x_max":1477,"o":"m 566 1111 l 952 1111 l 1477 -278 l 1140 -278 l 1033 5 l 486 5 l 378 -278 l 41 -278 l 566 1111 m 604 1146 l 739 1305 l 876 1146 l 1003 1255 l 739 1563 l 476 1255 l 604 1146 m 604 321 l 914 321 l 760 730 l 604 321 z "},"Ã":{"ha":1518,"x_min":41,"x_max":1477,"o":"m 566 1111 l 952 1111 l 1477 -278 l 1140 -278 l 1033 5 l 486 5 l 378 -278 l 41 -278 l 566 1111 m 661 1516 q 688 1514 674 1516 q 738 1501 712 1510 q 778 1485 764 1491 q 819 1462 791 1478 q 851 1444 847 1447 q 901 1422 880 1429 q 929 1416 923 1415 q 985 1499 954 1421 l 1140 1436 q 960 1251 1075 1272 q 926 1249 943 1249 q 897 1250 909 1249 q 867 1256 884 1251 q 842 1263 850 1261 q 816 1275 833 1266 q 794 1286 799 1283 q 772 1297 789 1289 q 660 1349 682 1345 q 637 1350 646 1354 q 609 1318 629 1346 l 473 1417 q 559 1491 508 1466 q 661 1516 610 1517 m 604 321 l 914 321 l 760 730 l 604 321 z "},"Ä":{"ha":1518,"x_min":41,"x_max":1477,"o":"m 566 1111 l 952 1111 l 1477 -278 l 1140 -278 l 1033 5 l 486 5 l 378 -278 l 41 -278 l 566 1111 m 789 1454 l 1053 1454 l 1053 1192 l 789 1192 l 789 1454 m 461 1454 l 725 1454 l 725 1192 l 461 1192 l 461 1454 m 604 321 l 914 321 l 760 730 l 604 321 z "},"Å":{"ha":1518,"x_min":41,"x_max":1477,"o":"m 566 1111 l 952 1111 l 1477 -278 l 1140 -278 l 1033 5 l 486 5 l 378 -278 l 41 -278 l 566 1111 m 770 1522 q 711 1500 735 1522 q 685 1430 685 1476 q 711 1360 685 1383 q 770 1338 735 1338 q 830 1360 806 1338 q 857 1430 857 1385 q 830 1500 857 1475 q 770 1522 807 1522 m 771 1649 q 917 1593 857 1649 q 983 1430 983 1531 q 917 1267 983 1329 q 771 1211 857 1211 q 625 1267 685 1211 q 558 1430 558 1329 q 625 1594 558 1531 q 771 1649 685 1649 m 604 321 l 914 321 l 760 730 l 604 321 z "},"Æ":{"ha":1830,"x_min":41,"x_max":1790,"o":"m 772 574 l 772 766 l 605 321 l 772 321 l 772 574 m 772 -278 l 772 7 l 486 6 l 378 -278 l 41 -278 l 566 1111 l 772 1111 l 928 1111 l 1088 1111 l 1790 1111 l 1790 796 l 1088 796 l 1088 574 l 1742 574 l 1742 259 l 1088 259 l 1088 37 l 1790 37 l 1790 -278 l 1088 -278 l 772 -278 z "},"Ç":{"ha":1326,"x_min":33,"x_max":1285,"o":"m 660 -287 l 660 -318 q 713 -361 692 -335 q 751 -484 756 -415 q 684 -604 745 -553 q 533 -656 623 -656 l 533 -513 q 575 -509 559 -513 q 598 -499 591 -506 q 606 -487 604 -492 q 608 -473 608 -482 q 602 -450 610 -458 q 589 -444 597 -444 l 517 -444 l 517 -256 q 189 -21 318 -190 q 44 361 60 148 q 78 642 33 506 q 215 887 122 779 q 437 1057 309 996 q 719 1123 569 1121 q 987 1072 857 1124 q 1215 917 1116 1019 l 989 697 q 792 804 905 783 q 574 774 680 825 q 409 616 469 723 q 358 385 349 509 q 442 166 368 261 q 629 39 517 72 q 849 45 741 7 q 1027 183 958 84 l 1285 2 q 1009 -228 1178 -151 q 660 -287 841 -305 z "},"È":{"ha":1100,"x_min":41,"x_max":1059,"o":"m 489 1535 l 399 1430 l 692 1183 l 781 1290 l 489 1535 m 41 796 l 41 1111 l 357 1111 l 1059 1111 l 1059 796 l 357 796 l 357 574 l 1011 574 l 1011 259 l 357 259 l 357 37 l 1059 37 l 1059 -278 l 357 -278 l 41 -278 l 41 37 l 41 259 l 41 574 l 41 796 z "},"É":{"ha":1100,"x_min":41,"x_max":1059,"o":"m 721 1535 l 810 1430 l 518 1183 l 429 1290 l 721 1535 m 41 796 l 41 1111 l 357 1111 l 1059 1111 l 1059 796 l 357 796 l 357 574 l 1011 574 l 1011 259 l 357 259 l 357 37 l 1059 37 l 1059 -278 l 357 -278 l 41 -278 l 41 37 l 41 259 l 41 574 l 41 796 z "},"Ê":{"ha":1100,"x_min":41,"x_max":1059,"o":"m 437 1146 l 573 1305 l 709 1146 l 836 1255 l 573 1563 l 309 1255 l 437 1146 m 41 796 l 41 1111 l 357 1111 l 1059 1111 l 1059 796 l 357 796 l 357 574 l 1011 574 l 1011 259 l 357 259 l 357 37 l 1059 37 l 1059 -278 l 357 -278 l 41 -278 l 41 37 l 41 259 l 41 574 l 41 796 z "},"Ë":{"ha":1100,"x_min":41,"x_max":1059,"o":"m 589 1454 l 852 1454 l 852 1192 l 589 1192 l 589 1454 m 261 1454 l 525 1454 l 525 1192 l 261 1192 l 261 1454 m 41 796 l 41 1111 l 357 1111 l 1059 1111 l 1059 796 l 357 796 l 357 574 l 1011 574 l 1011 259 l 357 259 l 357 37 l 1059 37 l 1059 -278 l 357 -278 l 41 -278 l 41 37 l 41 259 l 41 574 l 41 796 z "},"Ì":{"ha":696,"x_min":41,"x_max":655,"o":"m 256 1535 l 166 1430 l 458 1183 l 548 1290 l 256 1535 m 191 796 l 41 796 l 41 1111 l 191 1111 l 506 1111 l 655 1111 l 655 796 l 506 796 l 506 37 l 655 37 l 655 -278 l 506 -278 l 191 -278 l 41 -278 l 41 37 l 191 37 l 191 796 z "},"Í":{"ha":696,"x_min":41,"x_max":655,"o":"m 458 1535 l 548 1430 l 256 1183 l 166 1290 l 458 1535 m 191 796 l 41 796 l 41 1111 l 191 1111 l 506 1111 l 655 1111 l 655 796 l 506 796 l 506 37 l 655 37 l 655 -278 l 506 -278 l 191 -278 l 41 -278 l 41 37 l 191 37 l 191 796 z "},"Î":{"ha":696,"x_min":41,"x_max":655,"o":"m 216 1146 l 352 1305 l 488 1146 l 616 1255 l 352 1563 l 89 1255 l 216 1146 m 191 796 l 41 796 l 41 1111 l 191 1111 l 506 1111 l 655 1111 l 655 796 l 506 796 l 506 37 l 655 37 l 655 -278 l 506 -278 l 191 -278 l 41 -278 l 41 37 l 191 37 l 191 796 z "},"Ï":{"ha":696,"x_min":18,"x_max":691,"o":"m 415 1220 q 391 1243 415 1220 q 368 1334 368 1267 q 415 1449 368 1401 q 529 1496 462 1496 q 644 1449 596 1496 q 691 1334 691 1401 q 644 1220 691 1267 q 529 1173 596 1173 q 415 1220 462 1173 m 65 1220 q 41 1243 65 1220 q 18 1334 18 1267 q 65 1449 18 1401 q 179 1496 112 1496 q 294 1449 246 1496 q 341 1334 341 1401 q 294 1220 341 1267 q 179 1173 246 1173 q 65 1220 112 1173 m 191 796 l 41 796 l 41 1111 l 191 1111 l 506 1111 l 655 1111 l 655 796 l 506 796 l 506 37 l 655 37 l 655 -278 l 506 -278 l 191 -278 l 41 -278 l 41 37 l 191 37 l 191 796 z "},"Ð":{"ha":1242,"x_min":-43,"x_max":1203,"o":"m 357 796 l 357 526 l 514 526 l 514 274 l 357 274 l 357 37 l 503 37 q 789 153 685 37 q 861 274 836 204 q 887 418 886 343 q 863 562 888 492 q 793 681 839 631 q 503 796 690 796 l 357 796 m 41 796 l 41 1111 l 357 1111 l 503 1111 q 801 1053 665 1111 q 1028 891 937 994 q 1159 670 1116 793 q 1202 416 1203 547 q 1156 162 1200 285 q 1024 -58 1112 39 q 797 -219 932 -160 q 503 -277 663 -277 l 357 -277 l 357 -278 l 41 -278 l 41 -277 l 41 37 l 41 274 l -43 274 l -43 526 l 41 526 l 41 796 z "},"Ñ":{"ha":1436,"x_min":41,"x_max":1394,"o":"m 41 1111 l 409 1111 l 1080 140 l 1080 1111 l 1394 1111 l 1394 -279 l 987 -279 l 357 633 l 357 -278 l 41 -278 l 41 1111 m 590 1475 q 617 1473 604 1475 q 668 1459 642 1469 q 707 1443 694 1450 q 748 1421 720 1437 q 781 1403 777 1405 q 831 1380 809 1388 q 859 1375 852 1373 q 913 1457 883 1380 l 1069 1395 q 889 1210 1004 1231 q 856 1207 873 1207 q 826 1208 839 1207 q 797 1214 814 1209 q 771 1222 780 1219 q 745 1233 762 1225 q 723 1244 728 1242 q 701 1256 718 1247 q 589 1308 612 1304 q 567 1309 576 1313 q 538 1277 558 1305 l 403 1375 q 488 1450 437 1424 q 590 1475 539 1476 z "},"Ò":{"ha":1457,"x_min":41,"x_max":1416,"o":"m 729 631 l 956 404 l 729 176 l 501 404 l 729 631 m 729 809 q 543 758 628 809 q 407 615 457 706 q 357 416 357 525 q 386 265 357 338 q 468 138 415 193 q 588 54 521 83 q 729 24 656 24 q 870 54 802 24 q 990 138 937 83 q 1072 265 1043 193 q 1101 416 1101 337 q 1072 568 1101 496 q 990 696 1043 641 q 870 780 937 751 q 729 809 802 809 m 729 1124 q 994 1069 867 1124 q 1217 915 1120 1015 q 1364 686 1312 815 q 1416 416 1416 556 q 1364 148 1416 277 q 1217 -81 1313 18 q 994 -236 1120 -181 q 729 -290 867 -290 q 464 -236 591 -290 q 241 -81 337 -181 q 93 148 144 18 q 41 416 41 277 q 96 689 41 559 q 242 915 150 820 q 461 1067 334 1010 q 729 1124 589 1124 m 613 1536 l 524 1430 l 816 1184 l 905 1291 l 613 1536 z "},"Ó":{"ha":1457,"x_min":41,"x_max":1416,"o":"m 729 631 l 956 404 l 729 176 l 501 404 l 729 631 m 729 809 q 543 758 628 809 q 407 615 457 706 q 357 416 357 525 q 386 265 357 338 q 468 138 415 193 q 588 54 521 83 q 729 24 656 24 q 870 54 802 24 q 990 138 937 83 q 1072 265 1043 193 q 1101 416 1101 337 q 1072 568 1101 496 q 990 696 1043 641 q 870 780 937 751 q 729 809 802 809 m 729 1124 q 994 1069 867 1124 q 1217 915 1120 1015 q 1364 686 1312 815 q 1416 416 1416 556 q 1364 148 1416 277 q 1217 -81 1313 18 q 994 -236 1120 -181 q 729 -290 867 -290 q 464 -236 591 -290 q 241 -81 337 -181 q 93 148 144 18 q 41 416 41 277 q 96 689 41 559 q 242 915 150 820 q 461 1067 334 1010 q 729 1124 589 1124 m 761 1552 l 850 1446 l 557 1200 l 468 1306 l 761 1552 z "},"Ô":{"ha":1457,"x_min":41,"x_max":1416,"o":"m 729 631 l 956 404 l 729 176 l 501 404 l 729 631 m 729 809 q 543 758 628 809 q 407 615 457 706 q 357 416 357 525 q 386 265 357 338 q 468 138 415 193 q 588 54 521 83 q 729 24 656 24 q 870 54 802 24 q 990 138 937 83 q 1072 265 1043 193 q 1101 416 1101 337 q 1072 568 1101 496 q 990 696 1043 641 q 870 780 937 751 q 729 809 802 809 m 729 1124 q 994 1069 867 1124 q 1217 915 1120 1015 q 1364 686 1312 815 q 1416 416 1416 556 q 1364 148 1416 277 q 1217 -81 1313 18 q 994 -236 1120 -181 q 729 -290 867 -290 q 464 -236 591 -290 q 241 -81 337 -181 q 93 148 144 18 q 41 416 41 277 q 96 689 41 559 q 242 915 150 820 q 461 1067 334 1010 q 729 1124 589 1124 m 589 1175 l 726 1335 l 861 1175 l 989 1284 l 726 1592 l 462 1284 l 589 1175 z "},"Õ":{"ha":1457,"x_min":41,"x_max":1416,"o":"m 729 631 l 956 404 l 729 176 l 501 404 l 729 631 m 729 809 q 543 758 628 809 q 407 615 457 706 q 357 416 357 525 q 386 265 357 338 q 468 138 415 193 q 588 54 521 83 q 729 24 656 24 q 870 54 802 24 q 990 138 937 83 q 1072 265 1043 193 q 1101 416 1101 337 q 1072 568 1101 496 q 990 696 1043 641 q 870 780 937 751 q 729 809 802 809 m 729 1124 q 994 1069 867 1124 q 1217 915 1120 1015 q 1364 686 1312 815 q 1416 416 1416 556 q 1364 148 1416 277 q 1217 -81 1313 18 q 994 -236 1120 -181 q 729 -290 867 -290 q 464 -236 591 -290 q 241 -81 337 -181 q 93 148 144 18 q 41 416 41 277 q 96 689 41 559 q 242 915 150 820 q 461 1067 334 1010 q 729 1124 589 1124 m 661 1516 q 688 1514 674 1516 q 738 1501 712 1510 q 778 1485 764 1491 q 819 1462 791 1478 q 851 1444 847 1447 q 901 1422 880 1429 q 929 1416 923 1415 q 985 1499 954 1421 l 1140 1436 q 960 1251 1075 1272 q 926 1249 943 1249 q 897 1250 909 1249 q 867 1256 884 1251 q 842 1263 850 1261 q 816 1275 833 1266 q 794 1286 799 1283 q 772 1297 789 1289 q 660 1349 682 1345 q 637 1350 646 1354 q 609 1318 629 1346 l 473 1417 q 559 1491 508 1466 q 661 1516 610 1517 z "},"Ö":{"ha":1457,"x_min":41,"x_max":1416,"o":"m 729 631 l 956 404 l 729 176 l 501 404 l 729 631 m 729 809 q 543 758 628 809 q 407 615 457 706 q 357 416 357 525 q 386 265 357 338 q 468 138 415 193 q 588 54 521 83 q 729 24 656 24 q 870 54 802 24 q 990 138 937 83 q 1072 265 1043 193 q 1101 416 1101 337 q 1072 568 1101 496 q 990 696 1043 641 q 870 780 937 751 q 729 809 802 809 m 729 1124 q 994 1069 867 1124 q 1217 915 1120 1015 q 1364 686 1312 815 q 1416 416 1416 556 q 1364 148 1416 277 q 1217 -81 1313 18 q 994 -236 1120 -181 q 729 -290 867 -290 q 464 -236 591 -290 q 241 -81 337 -181 q 93 148 144 18 q 41 416 41 277 q 96 689 41 559 q 242 915 150 820 q 461 1067 334 1010 q 729 1124 589 1124 m 764 1454 l 1028 1454 l 1028 1192 l 764 1192 l 764 1454 m 436 1454 l 700 1454 l 700 1192 l 436 1192 l 436 1454 z "},"×":{"ha":871,"x_min":41,"x_max":830,"o":"m 607 853 l 830 631 l 659 459 l 830 288 l 607 65 l 436 237 l 264 65 l 41 288 l 213 459 l 41 631 l 264 853 l 436 682 l 607 853 z "},"Ø":{"ha":1457,"x_min":41,"x_max":1416,"o":"m 729 809 q 543 758 628 809 q 407 615 457 706 q 357 416 357 525 q 446 162 357 272 l 838 791 q 729 809 784 809 m 1038 1111 l 1348 1111 l 1222 909 q 1366 682 1316 810 q 1416 416 1416 554 q 1364 148 1416 277 q 1217 -81 1313 18 q 994 -236 1120 -181 q 729 -290 867 -290 q 498 -250 611 -290 l 481 -278 l 171 -278 l 274 -113 q 241 -81 262 -103 q 93 148 144 18 q 41 416 41 277 q 96 689 41 559 q 242 915 150 820 q 461 1067 334 1010 q 729 1124 589 1124 q 1008 1063 876 1124 l 1038 1111 m 673 29 q 729 24 705 24 q 870 54 802 24 q 990 138 937 83 q 1072 265 1043 193 q 1101 416 1101 337 q 1044 625 1101 530 l 673 29 z "},"Ù":{"ha":1283,"x_min":41,"x_max":1242,"o":"m 41 1111 l 357 1111 l 357 319 q 445 87 357 170 q 642 14 524 14 q 839 87 760 14 q 927 319 927 170 l 927 1111 l 1242 1111 l 1242 319 q 1192 58 1242 178 q 1053 -143 1141 -62 q 862 -261 969 -221 q 642 -300 755 -300 q 422 -261 528 -300 q 231 -143 315 -221 q 92 58 142 -61 q 41 319 41 178 l 41 1111 m 520 1532 l 431 1426 l 723 1180 l 812 1286 l 520 1532 z "},"Ú":{"ha":1283,"x_min":41,"x_max":1242,"o":"m 41 1111 l 357 1111 l 357 319 q 445 87 357 170 q 642 14 524 14 q 839 87 760 14 q 927 319 927 170 l 927 1111 l 1242 1111 l 1242 319 q 1192 58 1242 178 q 1053 -143 1141 -62 q 862 -261 969 -221 q 642 -300 755 -300 q 422 -261 528 -300 q 231 -143 315 -221 q 92 58 142 -61 q 41 319 41 178 l 41 1111 m 734 1542 l 823 1436 l 531 1190 l 441 1297 l 734 1542 z "},"Û":{"ha":1283,"x_min":41,"x_max":1242,"o":"m 41 1111 l 357 1111 l 357 319 q 445 87 357 170 q 642 14 524 14 q 839 87 760 14 q 927 319 927 170 l 927 1111 l 1242 1111 l 1242 319 q 1192 58 1242 178 q 1053 -143 1141 -62 q 862 -261 969 -221 q 642 -300 755 -300 q 422 -261 528 -300 q 231 -143 315 -221 q 92 58 142 -61 q 41 319 41 178 l 41 1111 m 513 1183 l 648 1341 l 785 1183 l 912 1292 l 648 1600 l 385 1292 l 513 1183 z "},"Ü":{"ha":1283,"x_min":41,"x_max":1242,"o":"m 41 1111 l 357 1111 l 357 319 q 445 87 357 170 q 642 14 524 14 q 839 87 760 14 q 927 319 927 170 l 927 1111 l 1242 1111 l 1242 319 q 1192 58 1242 178 q 1053 -143 1141 -62 q 862 -261 969 -221 q 642 -300 755 -300 q 422 -261 528 -300 q 231 -143 315 -221 q 92 58 142 -61 q 41 319 41 178 l 41 1111 m 684 1454 l 947 1454 l 947 1192 l 684 1192 l 684 1454 m 356 1454 l 619 1454 l 619 1192 l 356 1192 l 356 1454 z "},"Ý":{"ha":1311,"x_min":41,"x_max":1270,"o":"m 41 1111 l 399 1111 l 656 635 l 912 1111 l 1270 1111 l 813 263 l 813 -278 l 498 -278 l 498 263 l 41 1111 m 734 1542 l 823 1436 l 531 1190 l 441 1297 l 734 1542 z "},"Þ":{"ha":1132,"x_min":41,"x_max":1091,"o":"m 41 1111 l 357 1111 l 357 907 l 643 907 q 832 867 744 907 q 979 761 921 828 q 1091 454 1091 632 q 980 148 1091 275 q 832 41 921 80 q 643 1 743 1 l 357 1 l 357 -278 l 41 -278 l 41 1111 m 357 317 l 643 317 q 704 327 682 317 q 743 355 726 336 q 777 454 777 394 q 743 553 777 513 q 704 583 726 573 q 643 592 682 592 l 357 592 l 357 317 z "},"ß":{"ha":1225,"x_min":41,"x_max":1209,"o":"m 475 1133 q 519 1131 497 1133 q 692 1071 610 1122 q 828 937 774 1021 q 918 614 914 804 q 1139 360 1069 522 q 1172 31 1209 198 q 1089 -152 1150 -67 q 937 -301 1029 -237 q 716 -402 845 -366 q 440 -439 588 -439 l 440 -125 q 600 -111 529 -125 q 716 -76 671 -98 q 793 -25 761 -55 q 841 35 825 5 q 865 99 857 64 q 864 205 877 153 q 809 302 850 258 q 705 369 768 347 l 587 410 l 600 534 q 564 766 616 688 q 486 818 533 813 q 443 815 463 820 q 402 794 422 810 q 370 741 382 778 q 357 651 357 705 q 356 316 356 414 q 358 124 357 218 q 359 -8 359 31 l 359 -282 l 44 -282 l 44 -8 q 43 121 44 28 q 42 315 42 215 q 43 653 41 414 q 80 844 43 754 q 176 996 116 934 q 314 1095 236 1059 q 475 1133 392 1132 z "},"à":{"ha":1518,"x_min":41,"x_max":1477,"o":"m 566 1111 l 952 1111 l 1477 -278 l 1140 -278 l 1033 5 l 486 5 l 378 -278 l 41 -278 l 566 1111 m 633 1535 l 544 1430 l 836 1183 l 926 1290 l 633 1535 m 604 321 l 914 321 l 760 730 l 604 321 z "},"á":{"ha":1518,"x_min":41,"x_max":1477,"o":"m 566 1111 l 952 1111 l 1477 -278 l 1140 -278 l 1033 5 l 486 5 l 378 -278 l 41 -278 l 566 1111 m 836 1535 l 926 1430 l 633 1183 l 544 1290 l 836 1535 m 604 321 l 914 321 l 760 730 l 604 321 z "},"â":{"ha":1518,"x_min":41,"x_max":1477,"o":"m 566 1111 l 952 1111 l 1477 -278 l 1140 -278 l 1033 5 l 486 5 l 378 -278 l 41 -278 l 566 1111 m 604 1146 l 739 1305 l 876 1146 l 1003 1255 l 739 1563 l 476 1255 l 604 1146 m 604 321 l 914 321 l 760 730 l 604 321 z "},"ã":{"ha":1518,"x_min":41,"x_max":1477,"o":"m 566 1111 l 952 1111 l 1477 -278 l 1140 -278 l 1033 5 l 486 5 l 378 -278 l 41 -278 l 566 1111 m 661 1516 q 688 1514 674 1516 q 738 1501 712 1510 q 778 1485 764 1491 q 819 1462 791 1478 q 851 1444 847 1447 q 901 1422 880 1429 q 929 1416 923 1415 q 985 1499 954 1421 l 1140 1436 q 960 1251 1075 1272 q 926 1249 943 1249 q 897 1250 909 1249 q 867 1256 884 1251 q 842 1263 850 1261 q 816 1275 833 1266 q 794 1286 799 1283 q 772 1297 789 1289 q 660 1349 682 1345 q 637 1350 646 1354 q 609 1318 629 1346 l 473 1417 q 559 1491 508 1466 q 661 1516 610 1517 m 604 321 l 914 321 l 760 730 l 604 321 z "},"ä":{"ha":1518,"x_min":41,"x_max":1477,"o":"m 566 1111 l 952 1111 l 1477 -278 l 1140 -278 l 1033 5 l 486 5 l 378 -278 l 41 -278 l 566 1111 m 789 1454 l 1053 1454 l 1053 1192 l 789 1192 l 789 1454 m 461 1454 l 725 1454 l 725 1192 l 461 1192 l 461 1454 m 604 321 l 914 321 l 760 730 l 604 321 z "},"å":{"ha":1518,"x_min":41,"x_max":1477,"o":"m 566 1111 l 952 1111 l 1477 -278 l 1140 -278 l 1033 5 l 486 5 l 378 -278 l 41 -278 l 566 1111 m 770 1522 q 711 1500 735 1522 q 685 1430 685 1476 q 711 1360 685 1383 q 770 1338 735 1338 q 830 1360 806 1338 q 857 1430 857 1385 q 830 1500 857 1475 q 770 1522 807 1522 m 771 1649 q 917 1593 857 1649 q 983 1430 983 1531 q 917 1267 983 1329 q 771 1211 857 1211 q 625 1267 685 1211 q 558 1430 558 1329 q 625 1594 558 1531 q 771 1649 685 1649 m 604 321 l 914 321 l 760 730 l 604 321 z "},"æ":{"ha":1830,"x_min":41,"x_max":1790,"o":"m 772 574 l 772 766 l 605 321 l 772 321 l 772 574 m 772 -278 l 772 7 l 486 6 l 378 -278 l 41 -278 l 566 1111 l 772 1111 l 928 1111 l 1088 1111 l 1790 1111 l 1790 796 l 1088 796 l 1088 574 l 1742 574 l 1742 259 l 1088 259 l 1088 37 l 1790 37 l 1790 -278 l 1088 -278 l 772 -278 z "},"ç":{"ha":1326,"x_min":33,"x_max":1285,"o":"m 660 -287 l 660 -318 q 713 -361 692 -335 q 751 -484 756 -415 q 684 -604 745 -553 q 533 -656 623 -656 l 533 -513 q 575 -509 559 -513 q 598 -499 591 -506 q 606 -487 604 -492 q 608 -473 608 -482 q 602 -450 610 -458 q 589 -444 597 -444 l 517 -444 l 517 -256 q 189 -21 318 -190 q 44 361 60 148 q 78 642 33 506 q 215 887 122 779 q 437 1057 309 996 q 719 1123 569 1121 q 987 1072 857 1124 q 1215 917 1116 1019 l 989 697 q 792 804 905 783 q 574 774 680 825 q 409 616 469 723 q 358 385 349 509 q 442 166 368 261 q 629 39 517 72 q 849 45 741 7 q 1027 183 958 84 l 1285 2 q 1009 -228 1178 -151 q 660 -287 841 -305 z "},"è":{"ha":1100,"x_min":41,"x_max":1059,"o":"m 489 1535 l 399 1430 l 692 1183 l 781 1290 l 489 1535 m 41 796 l 41 1111 l 357 1111 l 1059 1111 l 1059 796 l 357 796 l 357 574 l 1011 574 l 1011 259 l 357 259 l 357 37 l 1059 37 l 1059 -278 l 357 -278 l 41 -278 l 41 37 l 41 259 l 41 574 l 41 796 z "},"é":{"ha":1100,"x_min":41,"x_max":1059,"o":"m 721 1535 l 810 1430 l 518 1183 l 429 1290 l 721 1535 m 41 796 l 41 1111 l 357 1111 l 1059 1111 l 1059 796 l 357 796 l 357 574 l 1011 574 l 1011 259 l 357 259 l 357 37 l 1059 37 l 1059 -278 l 357 -278 l 41 -278 l 41 37 l 41 259 l 41 574 l 41 796 z "},"ê":{"ha":1100,"x_min":41,"x_max":1059,"o":"m 437 1146 l 573 1305 l 709 1146 l 836 1255 l 573 1563 l 309 1255 l 437 1146 m 41 796 l 41 1111 l 357 1111 l 1059 1111 l 1059 796 l 357 796 l 357 574 l 1011 574 l 1011 259 l 357 259 l 357 37 l 1059 37 l 1059 -278 l 357 -278 l 41 -278 l 41 37 l 41 259 l 41 574 l 41 796 z "},"ë":{"ha":1100,"x_min":41,"x_max":1059,"o":"m 589 1454 l 852 1454 l 852 1192 l 589 1192 l 589 1454 m 261 1454 l 525 1454 l 525 1192 l 261 1192 l 261 1454 m 41 796 l 41 1111 l 357 1111 l 1059 1111 l 1059 796 l 357 796 l 357 574 l 1011 574 l 1011 259 l 357 259 l 357 37 l 1059 37 l 1059 -278 l 357 -278 l 41 -278 l 41 37 l 41 259 l 41 574 l 41 796 z "},"ì":{"ha":696,"x_min":41,"x_max":655,"o":"m 256 1535 l 166 1430 l 458 1183 l 548 1290 l 256 1535 m 191 796 l 41 796 l 41 1111 l 191 1111 l 506 1111 l 655 1111 l 655 796 l 506 796 l 506 37 l 655 37 l 655 -278 l 506 -278 l 191 -278 l 41 -278 l 41 37 l 191 37 l 191 796 z "},"í":{"ha":696,"x_min":41,"x_max":655,"o":"m 458 1535 l 548 1430 l 256 1183 l 166 1290 l 458 1535 m 191 796 l 41 796 l 41 1111 l 191 1111 l 506 1111 l 655 1111 l 655 796 l 506 796 l 506 37 l 655 37 l 655 -278 l 506 -278 l 191 -278 l 41 -278 l 41 37 l 191 37 l 191 796 z "},"î":{"ha":696,"x_min":41,"x_max":655,"o":"m 216 1146 l 352 1305 l 488 1146 l 616 1255 l 352 1563 l 89 1255 l 216 1146 m 191 796 l 41 796 l 41 1111 l 191 1111 l 506 1111 l 655 1111 l 655 796 l 506 796 l 506 37 l 655 37 l 655 -278 l 506 -278 l 191 -278 l 41 -278 l 41 37 l 191 37 l 191 796 z "},"ï":{"ha":696,"x_min":41,"x_max":655,"o":"m 371 1454 l 635 1454 l 635 1192 l 371 1192 l 371 1454 m 43 1454 l 307 1454 l 307 1192 l 43 1192 l 43 1454 m 191 796 l 41 796 l 41 1111 l 191 1111 l 506 1111 l 655 1111 l 655 796 l 506 796 l 506 37 l 655 37 l 655 -278 l 506 -278 l 191 -278 l 41 -278 l 41 37 l 191 37 l 191 796 z "},"ð":{"ha":83,"x_min":0,"x_max":0,"o":""},"ñ":{"ha":1436,"x_min":41,"x_max":1394,"o":"m 41 1111 l 409 1111 l 1080 140 l 1080 1111 l 1394 1111 l 1394 -279 l 987 -279 l 357 633 l 357 -278 l 41 -278 l 41 1111 m 590 1475 q 617 1473 604 1475 q 668 1459 642 1469 q 707 1443 694 1450 q 748 1421 720 1437 q 781 1403 777 1405 q 831 1380 809 1388 q 859 1375 852 1373 q 913 1457 883 1380 l 1069 1395 q 889 1210 1004 1231 q 856 1207 873 1207 q 826 1208 839 1207 q 797 1214 814 1209 q 771 1222 780 1219 q 745 1233 762 1225 q 723 1244 728 1242 q 701 1256 718 1247 q 589 1308 612 1304 q 567 1309 576 1313 q 538 1277 558 1305 l 403 1375 q 488 1450 437 1424 q 590 1475 539 1476 z "},"ò":{"ha":1457,"x_min":41,"x_max":1416,"o":"m 729 631 l 956 404 l 729 176 l 501 404 l 729 631 m 729 809 q 543 758 628 809 q 407 615 457 706 q 357 416 357 525 q 386 265 357 338 q 468 138 415 193 q 588 54 521 83 q 729 24 656 24 q 870 54 802 24 q 990 138 937 83 q 1072 265 1043 193 q 1101 416 1101 337 q 1072 568 1101 496 q 990 696 1043 641 q 870 780 937 751 q 729 809 802 809 m 729 1124 q 994 1069 867 1124 q 1217 915 1120 1015 q 1364 686 1312 815 q 1416 416 1416 556 q 1364 148 1416 277 q 1217 -81 1313 18 q 994 -236 1120 -181 q 729 -290 867 -290 q 464 -236 591 -290 q 241 -81 337 -181 q 93 148 144 18 q 41 416 41 277 q 96 689 41 559 q 242 915 150 820 q 461 1067 334 1010 q 729 1124 589 1124 m 613 1536 l 524 1430 l 816 1184 l 905 1291 l 613 1536 z "},"ó":{"ha":1457,"x_min":41,"x_max":1416,"o":"m 729 631 l 956 404 l 729 176 l 501 404 l 729 631 m 729 809 q 543 758 628 809 q 407 615 457 706 q 357 416 357 525 q 386 265 357 338 q 468 138 415 193 q 588 54 521 83 q 729 24 656 24 q 870 54 802 24 q 990 138 937 83 q 1072 265 1043 193 q 1101 416 1101 337 q 1072 568 1101 496 q 990 696 1043 641 q 870 780 937 751 q 729 809 802 809 m 729 1124 q 994 1069 867 1124 q 1217 915 1120 1015 q 1364 686 1312 815 q 1416 416 1416 556 q 1364 148 1416 277 q 1217 -81 1313 18 q 994 -236 1120 -181 q 729 -290 867 -290 q 464 -236 591 -290 q 241 -81 337 -181 q 93 148 144 18 q 41 416 41 277 q 96 689 41 559 q 242 915 150 820 q 461 1067 334 1010 q 729 1124 589 1124 m 761 1552 l 850 1446 l 557 1200 l 468 1306 l 761 1552 z "},"ô":{"ha":1457,"x_min":41,"x_max":1416,"o":"m 729 631 l 956 404 l 729 176 l 501 404 l 729 631 m 729 809 q 543 758 628 809 q 407 615 457 706 q 357 416 357 525 q 386 265 357 338 q 468 138 415 193 q 588 54 521 83 q 729 24 656 24 q 870 54 802 24 q 990 138 937 83 q 1072 265 1043 193 q 1101 416 1101 337 q 1072 568 1101 496 q 990 696 1043 641 q 870 780 937 751 q 729 809 802 809 m 729 1124 q 994 1069 867 1124 q 1217 915 1120 1015 q 1364 686 1312 815 q 1416 416 1416 556 q 1364 148 1416 277 q 1217 -81 1313 18 q 994 -236 1120 -181 q 729 -290 867 -290 q 464 -236 591 -290 q 241 -81 337 -181 q 93 148 144 18 q 41 416 41 277 q 96 689 41 559 q 242 915 150 820 q 461 1067 334 1010 q 729 1124 589 1124 m 589 1175 l 726 1335 l 861 1175 l 989 1284 l 726 1592 l 462 1284 l 589 1175 z "},"õ":{"ha":1457,"x_min":41,"x_max":1416,"o":"m 729 631 l 956 404 l 729 176 l 501 404 l 729 631 m 729 809 q 543 758 628 809 q 407 615 457 706 q 357 416 357 525 q 386 265 357 338 q 468 138 415 193 q 588 54 521 83 q 729 24 656 24 q 870 54 802 24 q 990 138 937 83 q 1072 265 1043 193 q 1101 416 1101 337 q 1072 568 1101 496 q 990 696 1043 641 q 870 780 937 751 q 729 809 802 809 m 729 1124 q 994 1069 867 1124 q 1217 915 1120 1015 q 1364 686 1312 815 q 1416 416 1416 556 q 1364 148 1416 277 q 1217 -81 1313 18 q 994 -236 1120 -181 q 729 -290 867 -290 q 464 -236 591 -290 q 241 -81 337 -181 q 93 148 144 18 q 41 416 41 277 q 96 689 41 559 q 242 915 150 820 q 461 1067 334 1010 q 729 1124 589 1124 m 661 1516 q 688 1514 674 1516 q 738 1501 712 1510 q 778 1485 764 1491 q 819 1462 791 1478 q 851 1444 847 1447 q 901 1422 880 1429 q 929 1416 923 1415 q 985 1499 954 1421 l 1140 1436 q 960 1251 1075 1272 q 926 1249 943 1249 q 897 1250 909 1249 q 867 1256 884 1251 q 842 1263 850 1261 q 816 1275 833 1266 q 794 1286 799 1283 q 772 1297 789 1289 q 660 1349 682 1345 q 637 1350 646 1354 q 609 1318 629 1346 l 473 1417 q 559 1491 508 1466 q 661 1516 610 1517 z "},"ö":{"ha":1457,"x_min":41,"x_max":1416,"o":"m 729 631 l 956 404 l 729 176 l 501 404 l 729 631 m 729 809 q 543 758 628 809 q 407 615 457 706 q 357 416 357 525 q 386 265 357 338 q 468 138 415 193 q 588 54 521 83 q 729 24 656 24 q 870 54 802 24 q 990 138 937 83 q 1072 265 1043 193 q 1101 416 1101 337 q 1072 568 1101 496 q 990 696 1043 641 q 870 780 937 751 q 729 809 802 809 m 729 1124 q 994 1069 867 1124 q 1217 915 1120 1015 q 1364 686 1312 815 q 1416 416 1416 556 q 1364 148 1416 277 q 1217 -81 1313 18 q 994 -236 1120 -181 q 729 -290 867 -290 q 464 -236 591 -290 q 241 -81 337 -181 q 93 148 144 18 q 41 416 41 277 q 96 689 41 559 q 242 915 150 820 q 461 1067 334 1010 q 729 1124 589 1124 m 764 1454 l 1028 1454 l 1028 1192 l 764 1192 l 764 1454 m 436 1454 l 700 1454 l 700 1192 l 436 1192 l 436 1454 z "},"÷":{"ha":826,"x_min":41,"x_max":785,"o":"m 41 561 l 785 561 l 785 245 l 41 245 l 41 561 m 249 916 l 545 916 l 545 631 l 249 631 l 249 916 m 256 168 l 551 168 l 551 -117 l 256 -117 l 256 168 z "},"ø":{"ha":1457,"x_min":41,"x_max":1416,"o":"m 729 809 q 543 758 628 809 q 407 615 457 706 q 357 416 357 525 q 446 162 357 272 l 838 791 q 729 809 784 809 m 1038 1111 l 1348 1111 l 1222 909 q 1366 682 1316 810 q 1416 416 1416 554 q 1364 148 1416 277 q 1217 -81 1313 18 q 994 -236 1120 -181 q 729 -290 867 -290 q 498 -250 611 -290 l 481 -278 l 171 -278 l 274 -113 q 241 -81 262 -103 q 93 148 144 18 q 41 416 41 277 q 96 689 41 559 q 242 915 150 820 q 461 1067 334 1010 q 729 1124 589 1124 q 1008 1063 876 1124 l 1038 1111 m 673 29 q 729 24 705 24 q 870 54 802 24 q 990 138 937 83 q 1072 265 1043 193 q 1101 416 1101 337 q 1044 625 1101 530 l 673 29 z "},"ù":{"ha":1283,"x_min":41,"x_max":1242,"o":"m 41 1111 l 357 1111 l 357 319 q 445 87 357 170 q 642 14 524 14 q 839 87 760 14 q 927 319 927 170 l 927 1111 l 1242 1111 l 1242 319 q 1192 58 1242 178 q 1053 -143 1141 -62 q 862 -261 969 -221 q 642 -300 755 -300 q 422 -261 528 -300 q 231 -143 315 -221 q 92 58 142 -61 q 41 319 41 178 l 41 1111 m 520 1532 l 431 1426 l 723 1180 l 812 1286 l 520 1532 z "},"ú":{"ha":1283,"x_min":41,"x_max":1242,"o":"m 41 1111 l 357 1111 l 357 319 q 445 87 357 170 q 642 14 524 14 q 839 87 760 14 q 927 319 927 170 l 927 1111 l 1242 1111 l 1242 319 q 1192 58 1242 178 q 1053 -143 1141 -62 q 862 -261 969 -221 q 642 -300 755 -300 q 422 -261 528 -300 q 231 -143 315 -221 q 92 58 142 -61 q 41 319 41 178 l 41 1111 m 734 1542 l 823 1436 l 531 1190 l 441 1297 l 734 1542 z "},"û":{"ha":1283,"x_min":41,"x_max":1242,"o":"m 41 1111 l 357 1111 l 357 319 q 445 87 357 170 q 642 14 524 14 q 839 87 760 14 q 927 319 927 170 l 927 1111 l 1242 1111 l 1242 319 q 1192 58 1242 178 q 1053 -143 1141 -62 q 862 -261 969 -221 q 642 -300 755 -300 q 422 -261 528 -300 q 231 -143 315 -221 q 92 58 142 -61 q 41 319 41 178 l 41 1111 m 513 1183 l 648 1341 l 785 1183 l 912 1292 l 648 1600 l 385 1292 l 513 1183 z "},"ü":{"ha":1283,"x_min":41,"x_max":1242,"o":"m 41 1111 l 357 1111 l 357 319 q 445 87 357 170 q 642 14 524 14 q 839 87 760 14 q 927 319 927 170 l 927 1111 l 1242 1111 l 1242 319 q 1192 58 1242 178 q 1053 -143 1141 -62 q 862 -261 969 -221 q 642 -300 755 -300 q 422 -261 528 -300 q 231 -143 315 -221 q 92 58 142 -61 q 41 319 41 178 l 41 1111 m 684 1454 l 947 1454 l 947 1192 l 684 1192 l 684 1454 m 356 1454 l 619 1454 l 619 1192 l 356 1192 l 356 1454 z "},"ý":{"ha":1311,"x_min":41,"x_max":1270,"o":"m 41 1111 l 399 1111 l 656 635 l 912 1111 l 1270 1111 l 813 263 l 813 -278 l 498 -278 l 498 263 l 41 1111 m 734 1542 l 823 1436 l 531 1190 l 441 1297 l 734 1542 z "},"þ":{"ha":1132,"x_min":41,"x_max":1091,"o":"m 41 1111 l 357 1111 l 357 907 l 643 907 q 832 867 744 907 q 979 761 921 828 q 1091 454 1091 632 q 980 148 1091 275 q 832 41 921 80 q 643 1 743 1 l 357 1 l 357 -278 l 41 -278 l 41 1111 m 357 317 l 643 317 q 704 327 682 317 q 743 355 726 336 q 777 454 777 394 q 743 553 777 513 q 704 583 726 573 q 643 592 682 592 l 357 592 l 357 317 z "},"ÿ":{"ha":1311,"x_min":41,"x_max":1270,"o":"m 688 1469 l 951 1469 l 951 1207 l 688 1207 l 688 1469 m 360 1469 l 624 1469 l 624 1207 l 360 1207 l 360 1469 m 41 1111 l 399 1111 l 656 635 l 912 1111 l 1270 1111 l 813 263 l 813 -278 l 498 -278 l 498 263 l 41 1111 z "},"Ā":{"ha":1518,"x_min":41,"x_max":1477,"o":"m 387 1350 l 1131 1350 l 1131 1210 l 387 1210 l 387 1350 m 566 1111 l 952 1111 l 1477 -278 l 1140 -278 l 1033 5 l 486 5 l 378 -278 l 41 -278 l 566 1111 m 604 321 l 914 321 l 760 730 l 604 321 z "},"ā":{"ha":1518,"x_min":41,"x_max":1477,"o":"m 387 1350 l 1131 1350 l 1131 1210 l 387 1210 l 387 1350 m 566 1111 l 952 1111 l 1477 -278 l 1140 -278 l 1033 5 l 486 5 l 378 -278 l 41 -278 l 566 1111 m 604 321 l 914 321 l 760 730 l 604 321 z "},"Ă":{"ha":1518,"x_min":41,"x_max":1477,"o":"m 566 1111 l 952 1111 l 1477 -278 l 1140 -278 l 1033 5 l 486 5 l 378 -278 l 41 -278 l 566 1111 m 494 1485 l 662 1485 q 697 1390 662 1423 q 777 1360 729 1360 q 858 1390 826 1360 q 894 1485 894 1423 l 1061 1485 q 1037 1363 1061 1419 q 972 1267 1013 1306 q 778 1193 891 1193 q 583 1267 664 1193 q 517 1362 541 1305 q 494 1485 494 1419 m 604 321 l 914 321 l 760 730 l 604 321 z "},"ă":{"ha":1518,"x_min":41,"x_max":1477,"o":"m 566 1111 l 952 1111 l 1477 -278 l 1140 -278 l 1033 5 l 486 5 l 378 -278 l 41 -278 l 566 1111 m 494 1485 l 662 1485 q 697 1390 662 1423 q 777 1360 729 1360 q 858 1390 826 1360 q 894 1485 894 1423 l 1061 1485 q 1037 1363 1061 1419 q 972 1267 1013 1306 q 778 1193 891 1193 q 583 1267 664 1193 q 517 1362 541 1305 q 494 1485 494 1419 m 604 321 l 914 321 l 760 730 l 604 321 z "},"Ć":{"ha":1326,"x_min":33,"x_max":1285,"o":"m 719 1123 q 987 1072 857 1124 q 1215 917 1116 1019 l 989 697 q 792 804 905 783 q 574 774 680 825 q 409 616 469 723 q 358 385 349 509 q 442 166 368 261 q 629 39 517 72 q 849 45 741 7 q 1027 183 958 84 l 1285 2 q 953 -251 1158 -177 q 540 -263 748 -324 q 197 -30 332 -202 q 44 361 61 142 q 78 642 33 506 q 215 887 122 779 q 437 1057 309 996 q 719 1123 569 1121 m 721 1535 l 810 1430 l 518 1183 l 429 1290 l 721 1535 z "},"ć":{"ha":1326,"x_min":33,"x_max":1285,"o":"m 719 1123 q 987 1072 857 1124 q 1215 917 1116 1019 l 989 697 q 792 804 905 783 q 574 774 680 825 q 409 616 469 723 q 358 385 349 509 q 442 166 368 261 q 629 39 517 72 q 849 45 741 7 q 1027 183 958 84 l 1285 2 q 953 -251 1158 -177 q 540 -263 748 -324 q 197 -30 332 -202 q 44 361 61 142 q 78 642 33 506 q 215 887 122 779 q 437 1057 309 996 q 719 1123 569 1121 m 721 1535 l 810 1430 l 518 1183 l 429 1290 l 721 1535 z "},"Ċ":{"ha":1326,"x_min":33,"x_max":1285,"o":"m 580 1491 l 875 1491 l 875 1207 l 580 1207 l 580 1491 m 719 1123 q 987 1072 857 1124 q 1215 917 1116 1019 l 989 697 q 792 804 905 783 q 574 774 680 825 q 409 616 469 723 q 358 385 349 509 q 442 166 368 261 q 629 39 517 72 q 849 45 741 7 q 1027 183 958 84 l 1285 2 q 953 -251 1158 -177 q 540 -263 748 -324 q 197 -30 332 -202 q 44 361 61 142 q 78 642 33 506 q 215 887 122 779 q 437 1057 309 996 q 719 1123 569 1121 z "},"ċ":{"ha":1326,"x_min":33,"x_max":1285,"o":"m 580 1491 l 875 1491 l 875 1207 l 580 1207 l 580 1491 m 719 1123 q 987 1072 857 1124 q 1215 917 1116 1019 l 989 697 q 792 804 905 783 q 574 774 680 825 q 409 616 469 723 q 358 385 349 509 q 442 166 368 261 q 629 39 517 72 q 849 45 741 7 q 1027 183 958 84 l 1285 2 q 953 -251 1158 -177 q 540 -263 748 -324 q 197 -30 332 -202 q 44 361 61 142 q 78 642 33 506 q 215 887 122 779 q 437 1057 309 996 q 719 1123 569 1121 z "},"Č":{"ha":1326,"x_min":33,"x_max":1285,"o":"m 591 1624 l 727 1465 l 863 1624 l 991 1514 l 727 1207 l 464 1514 l 591 1624 m 719 1123 q 987 1072 857 1124 q 1215 917 1116 1019 l 989 697 q 792 804 905 783 q 574 774 680 825 q 409 616 469 723 q 358 385 349 509 q 442 166 368 261 q 629 39 517 72 q 849 45 741 7 q 1027 183 958 84 l 1285 2 q 953 -251 1158 -177 q 540 -263 748 -324 q 197 -30 332 -202 q 44 361 61 142 q 78 642 33 506 q 215 887 122 779 q 437 1057 309 996 q 719 1123 569 1121 z "},"č":{"ha":1326,"x_min":33,"x_max":1285,"o":"m 591 1624 l 727 1465 l 863 1624 l 991 1514 l 727 1207 l 464 1514 l 591 1624 m 719 1123 q 987 1072 857 1124 q 1215 917 1116 1019 l 989 697 q 792 804 905 783 q 574 774 680 825 q 409 616 469 723 q 358 385 349 509 q 442 166 368 261 q 629 39 517 72 q 849 45 741 7 q 1027 183 958 84 l 1285 2 q 953 -251 1158 -177 q 540 -263 748 -324 q 197 -30 332 -202 q 44 361 61 142 q 78 642 33 506 q 215 887 122 779 q 437 1057 309 996 q 719 1123 569 1121 z "},"Đ":{"ha":1242,"x_min":-43,"x_max":1203,"o":"m 357 796 l 357 526 l 514 526 l 514 274 l 357 274 l 357 37 l 503 37 q 789 153 685 37 q 861 274 836 204 q 887 418 886 343 q 863 562 888 492 q 793 681 839 631 q 503 796 690 796 l 357 796 m 41 796 l 41 1111 l 357 1111 l 503 1111 q 801 1053 665 1111 q 1028 891 937 994 q 1159 670 1116 793 q 1202 416 1203 547 q 1156 162 1200 285 q 1024 -58 1112 39 q 797 -219 932 -160 q 503 -277 663 -277 l 357 -277 l 357 -278 l 41 -278 l 41 -277 l 41 37 l 41 274 l -43 274 l -43 526 l 41 526 l 41 796 z "},"đ":{"ha":1242,"x_min":-43,"x_max":1203,"o":"m 357 796 l 357 526 l 514 526 l 514 274 l 357 274 l 357 37 l 503 37 q 789 153 685 37 q 861 274 836 204 q 887 418 886 343 q 863 562 888 492 q 793 681 839 631 q 503 796 690 796 l 357 796 m 41 796 l 41 1111 l 357 1111 l 503 1111 q 801 1053 665 1111 q 1028 891 937 994 q 1159 670 1116 793 q 1202 416 1203 547 q 1156 162 1200 285 q 1024 -58 1112 39 q 797 -219 932 -160 q 503 -277 663 -277 l 357 -277 l 357 -278 l 41 -278 l 41 -277 l 41 37 l 41 274 l -43 274 l -43 526 l 41 526 l 41 796 z "},"Ē":{"ha":1100,"x_min":41,"x_max":1059,"o":"m 178 1350 l 922 1350 l 922 1210 l 178 1210 l 178 1350 m 41 796 l 41 1111 l 357 1111 l 1059 1111 l 1059 796 l 357 796 l 357 574 l 1011 574 l 1011 259 l 357 259 l 357 37 l 1059 37 l 1059 -278 l 357 -278 l 41 -278 l 41 37 l 41 259 l 41 574 l 41 796 z "},"ē":{"ha":1100,"x_min":41,"x_max":1059,"o":"m 178 1350 l 922 1350 l 922 1210 l 178 1210 l 178 1350 m 41 796 l 41 1111 l 357 1111 l 1059 1111 l 1059 796 l 357 796 l 357 574 l 1011 574 l 1011 259 l 357 259 l 357 37 l 1059 37 l 1059 -278 l 357 -278 l 41 -278 l 41 37 l 41 259 l 41 574 l 41 796 z "},"Ė":{"ha":1100,"x_min":41,"x_max":1059,"o":"m 403 1491 l 699 1491 l 699 1207 l 403 1207 l 403 1491 m 41 796 l 41 1111 l 357 1111 l 1059 1111 l 1059 796 l 357 796 l 357 574 l 1011 574 l 1011 259 l 357 259 l 357 37 l 1059 37 l 1059 -278 l 357 -278 l 41 -278 l 41 37 l 41 259 l 41 574 l 41 796 z "},"ė":{"ha":1100,"x_min":41,"x_max":1059,"o":"m 403 1491 l 699 1491 l 699 1207 l 403 1207 l 403 1491 m 41 796 l 41 1111 l 357 1111 l 1059 1111 l 1059 796 l 357 796 l 357 574 l 1011 574 l 1011 259 l 357 259 l 357 37 l 1059 37 l 1059 -278 l 357 -278 l 41 -278 l 41 37 l 41 259 l 41 574 l 41 796 z "},"Ġ":{"ha":1348,"x_min":28,"x_max":1308,"o":"m 580 1491 l 875 1491 l 875 1207 l 580 1207 l 580 1491 m 721 1111 q 987 1059 859 1112 q 1215 905 1116 1006 l 989 685 q 793 791 905 770 q 576 762 681 812 q 410 606 470 712 q 357 377 349 500 q 439 158 366 254 q 624 28 513 63 q 822 24 724 -3 q 993 129 920 52 l 993 237 l 652 237 l 652 552 l 1308 552 l 1308 20 l 1278 -21 q 943 -267 1149 -197 q 531 -273 737 -336 q 192 -36 326 -209 q 43 356 58 137 q 137 764 28 575 q 441 1046 246 954 q 721 1111 574 1109 z "},"ġ":{"ha":1348,"x_min":28,"x_max":1308,"o":"m 580 1491 l 875 1491 l 875 1207 l 580 1207 l 580 1491 m 721 1111 q 987 1059 859 1112 q 1215 905 1116 1006 l 989 685 q 793 791 905 770 q 576 762 681 812 q 410 606 470 712 q 357 377 349 500 q 439 158 366 254 q 624 28 513 63 q 822 24 724 -3 q 993 129 920 52 l 993 237 l 652 237 l 652 552 l 1308 552 l 1308 20 l 1278 -21 q 943 -267 1149 -197 q 531 -273 737 -336 q 192 -36 326 -209 q 43 356 58 137 q 137 764 28 575 q 441 1046 246 954 q 721 1111 574 1109 z "},"Ģ":{"ha":1348,"x_min":28,"x_max":1308,"o":"m 383 -385 l 679 -385 l 679 -629 l 515 -903 l 383 -903 l 383 -385 m 721 1111 q 987 1059 859 1112 q 1215 905 1116 1006 l 989 685 q 793 791 905 770 q 576 762 681 812 q 410 606 470 712 q 357 377 349 500 q 439 158 366 254 q 624 28 513 63 q 822 24 724 -3 q 993 129 920 52 l 993 237 l 652 237 l 652 552 l 1308 552 l 1308 20 l 1278 -21 q 943 -267 1149 -197 q 531 -273 737 -336 q 192 -36 326 -209 q 43 356 58 137 q 137 764 28 575 q 441 1046 246 954 q 721 1111 574 1109 z "},"Ī":{"ha":696,"x_min":-23,"x_max":720,"o":"m -23 1350 l 720 1350 l 720 1210 l -23 1210 l -23 1350 m 41 1111 l 655 1111 l 655 796 l 506 796 l 506 37 l 655 37 l 655 -278 l 41 -278 l 41 37 l 191 37 l 191 796 l 41 796 l 41 1111 z "},"ī":{"ha":696,"x_min":-23,"x_max":720,"o":"m -23 1350 l 720 1350 l 720 1210 l -23 1210 l -23 1350 m 41 1111 l 655 1111 l 655 796 l 506 796 l 506 37 l 655 37 l 655 -278 l 41 -278 l 41 37 l 191 37 l 191 796 l 41 796 l 41 1111 z "},"Ķ":{"ha":1330,"x_min":41,"x_max":1289,"o":"m 63 -361 l 359 -361 l 359 -606 l 195 -879 l 63 -879 l 63 -361 m 41 1111 l 357 1111 l 357 283 l 866 1111 l 1236 1111 l 885 541 l 1289 -278 l 938 -278 l 690 224 l 380 -278 l 41 -278 l 41 1111 z "},"ķ":{"ha":1330,"x_min":41,"x_max":1289,"o":"m 63 -361 l 359 -361 l 359 -606 l 195 -879 l 63 -879 l 63 -361 m 41 1111 l 357 1111 l 357 283 l 866 1111 l 1236 1111 l 885 541 l 1289 -278 l 938 -278 l 690 224 l 380 -278 l 41 -278 l 41 1111 z "},"Ļ":{"ha":1108,"x_min":41,"x_max":1067,"o":"m 407 -361 l 702 -361 l 702 -606 l 538 -879 l 407 -879 l 407 -361 m 41 1111 l 357 1111 l 357 37 l 1067 37 l 1067 -278 l 41 -278 l 41 1111 z "},"ļ":{"ha":1108,"x_min":41,"x_max":1067,"o":"m 407 -361 l 702 -361 l 702 -606 l 538 -879 l 407 -879 l 407 -361 m 41 1111 l 357 1111 l 357 37 l 1067 37 l 1067 -278 l 41 -278 l 41 1111 z "},"ł":{"ha":1108,"x_min":-180,"x_max":1067,"o":"m 41 1111 l 357 1111 l 357 877 l 386 906 l 608 684 l 357 431 l 357 37 l 1067 37 l 1067 -278 l 41 -278 l 41 119 l -180 340 l 41 562 l 41 1111 z "},"Ń":{"ha":1436,"x_min":41,"x_max":1394,"o":"m 41 1111 l 409 1111 l 1080 140 l 1080 1111 l 1394 1111 l 1394 -279 l 987 -279 l 357 633 l 357 -278 l 41 -278 l 41 1111 m 761 1555 l 850 1449 l 557 1202 l 468 1309 l 761 1555 z "},"ń":{"ha":1436,"x_min":41,"x_max":1394,"o":"m 41 1111 l 409 1111 l 1080 140 l 1080 1111 l 1394 1111 l 1394 -279 l 987 -279 l 357 633 l 357 -278 l 41 -278 l 41 1111 m 761 1555 l 850 1449 l 557 1202 l 468 1309 l 761 1555 z "},"Ņ":{"ha":1436,"x_min":41,"x_max":1394,"o":"m 1043 -363 l 1339 -363 l 1339 -607 l 1175 -880 l 1043 -880 l 1043 -363 m 41 1111 l 409 1111 l 1080 140 l 1080 1111 l 1394 1111 l 1394 -279 l 987 -279 l 357 633 l 357 -278 l 41 -278 l 41 1111 z "},"ņ":{"ha":1436,"x_min":41,"x_max":1394,"o":"m 1043 -363 l 1339 -363 l 1339 -607 l 1175 -880 l 1043 -880 l 1043 -363 m 41 1111 l 409 1111 l 1080 140 l 1080 1111 l 1394 1111 l 1394 -279 l 987 -279 l 357 633 l 357 -278 l 41 -278 l 41 1111 z "},"Ō":{"ha":1457,"x_min":41,"x_max":1416,"o":"m 357 1350 l 1101 1350 l 1101 1210 l 357 1210 l 357 1350 m 729 631 l 956 404 l 729 176 l 501 404 l 729 631 m 729 809 q 543 758 628 809 q 407 615 457 706 q 357 416 357 525 q 386 265 357 338 q 468 138 415 193 q 588 54 521 83 q 729 24 656 24 q 870 54 802 24 q 990 138 937 83 q 1072 265 1043 193 q 1101 416 1101 337 q 1072 568 1101 496 q 990 696 1043 641 q 870 780 937 751 q 729 809 802 809 m 729 1124 q 994 1069 867 1124 q 1217 915 1120 1015 q 1364 686 1312 815 q 1416 416 1416 556 q 1364 148 1416 277 q 1217 -81 1313 18 q 994 -236 1120 -181 q 729 -290 867 -290 q 464 -236 591 -290 q 241 -81 337 -181 q 93 148 144 18 q 41 416 41 277 q 96 689 41 559 q 242 915 150 820 q 461 1067 334 1010 q 729 1124 589 1124 z "},"ō":{"ha":1457,"x_min":41,"x_max":1416,"o":"m 357 1350 l 1101 1350 l 1101 1210 l 357 1210 l 357 1350 m 729 631 l 956 404 l 729 176 l 501 404 l 729 631 m 729 809 q 543 758 628 809 q 407 615 457 706 q 357 416 357 525 q 386 265 357 338 q 468 138 415 193 q 588 54 521 83 q 729 24 656 24 q 870 54 802 24 q 990 138 937 83 q 1072 265 1043 193 q 1101 416 1101 337 q 1072 568 1101 496 q 990 696 1043 641 q 870 780 937 751 q 729 809 802 809 m 729 1124 q 994 1069 867 1124 q 1217 915 1120 1015 q 1364 686 1312 815 q 1416 416 1416 556 q 1364 148 1416 277 q 1217 -81 1313 18 q 994 -236 1120 -181 q 729 -290 867 -290 q 464 -236 591 -290 q 241 -81 337 -181 q 93 148 144 18 q 41 416 41 277 q 96 689 41 559 q 242 915 150 820 q 461 1067 334 1010 q 729 1124 589 1124 z "},"Ő":{"ha":1457,"x_min":41,"x_max":1416,"o":"m 729 631 l 956 404 l 729 176 l 501 404 l 729 631 m 729 809 q 543 758 628 809 q 407 615 457 706 q 357 416 357 525 q 386 265 357 338 q 468 138 415 193 q 588 54 521 83 q 729 24 656 24 q 870 54 802 24 q 990 138 937 83 q 1072 265 1043 193 q 1101 416 1101 337 q 1072 568 1101 496 q 990 696 1043 641 q 870 780 937 751 q 729 809 802 809 m 729 1124 q 994 1069 867 1124 q 1217 915 1120 1015 q 1364 686 1312 815 q 1416 416 1416 556 q 1364 148 1416 277 q 1217 -81 1313 18 q 994 -236 1120 -181 q 729 -290 867 -290 q 464 -236 591 -290 q 241 -81 337 -181 q 93 148 144 18 q 41 416 41 277 q 96 689 41 559 q 242 915 150 820 q 461 1067 334 1010 q 729 1124 589 1124 m 968 1548 l 1057 1442 l 764 1196 l 675 1302 l 968 1548 m 712 1554 l 802 1447 l 509 1201 l 420 1308 l 712 1554 z "},"ő":{"ha":1457,"x_min":41,"x_max":1416,"o":"m 729 631 l 956 404 l 729 176 l 501 404 l 729 631 m 729 809 q 543 758 628 809 q 407 615 457 706 q 357 416 357 525 q 386 265 357 338 q 468 138 415 193 q 588 54 521 83 q 729 24 656 24 q 870 54 802 24 q 990 138 937 83 q 1072 265 1043 193 q 1101 416 1101 337 q 1072 568 1101 496 q 990 696 1043 641 q 870 780 937 751 q 729 809 802 809 m 729 1124 q 994 1069 867 1124 q 1217 915 1120 1015 q 1364 686 1312 815 q 1416 416 1416 556 q 1364 148 1416 277 q 1217 -81 1313 18 q 994 -236 1120 -181 q 729 -290 867 -290 q 464 -236 591 -290 q 241 -81 337 -181 q 93 148 144 18 q 41 416 41 277 q 96 689 41 559 q 242 915 150 820 q 461 1067 334 1010 q 729 1124 589 1124 m 968 1548 l 1057 1442 l 764 1196 l 675 1302 l 968 1548 m 712 1554 l 802 1447 l 509 1201 l 420 1308 l 712 1554 z "},"Œ":{"ha":2290,"x_min":41,"x_max":2250,"o":"m 729 809 q 543 758 628 809 q 407 615 457 706 q 357 416 357 525 q 386 265 357 338 q 468 138 415 193 q 588 54 521 83 q 729 24 656 24 q 870 54 802 24 q 990 138 937 83 q 1072 265 1043 193 q 1101 416 1101 337 q 1072 568 1101 496 q 990 696 1043 641 q 870 780 937 751 q 729 809 802 809 m 729 1124 q 994 1069 867 1124 q 1217 915 1120 1015 q 1232 898 1223 909 l 1232 1111 l 1547 1111 l 2250 1111 l 2250 796 l 1547 796 l 1547 574 l 2202 574 l 2202 259 l 1547 259 l 1547 37 l 2250 37 l 2250 -278 l 1547 -278 l 1232 -278 l 1232 -64 q 1217 -81 1223 -75 q 994 -236 1120 -181 q 729 -290 867 -290 q 464 -236 591 -290 q 241 -81 337 -181 q 93 148 144 18 q 41 416 41 277 q 96 689 41 559 q 242 915 150 820 q 461 1067 334 1010 q 729 1124 589 1124 z "},"œ":{"ha":2290,"x_min":41,"x_max":2250,"o":"m 729 809 q 543 758 628 809 q 407 615 457 706 q 357 416 357 525 q 386 265 357 338 q 468 138 415 193 q 588 54 521 83 q 729 24 656 24 q 870 54 802 24 q 990 138 937 83 q 1072 265 1043 193 q 1101 416 1101 337 q 1072 568 1101 496 q 990 696 1043 641 q 870 780 937 751 q 729 809 802 809 m 729 1124 q 994 1069 867 1124 q 1217 915 1120 1015 q 1232 898 1223 909 l 1232 1111 l 1547 1111 l 2250 1111 l 2250 796 l 1547 796 l 1547 574 l 2202 574 l 2202 259 l 1547 259 l 1547 37 l 2250 37 l 2250 -278 l 1547 -278 l 1232 -278 l 1232 -64 q 1217 -81 1223 -75 q 994 -236 1120 -181 q 729 -290 867 -290 q 464 -236 591 -290 q 241 -81 337 -181 q 93 148 144 18 q 41 416 41 277 q 96 689 41 559 q 242 915 150 820 q 461 1067 334 1010 q 729 1124 589 1124 z "},"Ŗ":{"ha":1169,"x_min":41,"x_max":1129,"o":"m 437 -361 l 733 -361 l 733 -605 l 569 -879 l 437 -879 l 437 -361 m 484 488 l 643 488 q 702 497 682 488 q 740 528 722 507 q 777 642 777 571 q 740 755 777 712 q 702 786 722 777 q 643 796 681 796 l 357 796 l 357 488 l 484 488 m 484 172 l 357 172 l 357 -278 l 41 -278 l 41 1111 l 264 1111 l 357 1111 l 643 1111 q 834 1069 745 1111 q 983 957 924 1027 q 1091 642 1091 826 q 983 327 1091 458 q 881 239 942 277 q 970 86 926 174 q 1080 -167 1014 -1 q 1129 -278 1093 -199 l 785 -278 q 688 -56 728 -136 q 570 124 629 64 q 484 172 524 172 z "},"ŗ":{"ha":1169,"x_min":41,"x_max":1129,"o":"m 437 -361 l 733 -361 l 733 -605 l 569 -879 l 437 -879 l 437 -361 m 484 488 l 643 488 q 702 497 682 488 q 740 528 722 507 q 777 642 777 571 q 740 755 777 712 q 702 786 722 777 q 643 796 681 796 l 357 796 l 357 488 l 484 488 m 484 172 l 357 172 l 357 -278 l 41 -278 l 41 1111 l 264 1111 l 357 1111 l 643 1111 q 834 1069 745 1111 q 983 957 924 1027 q 1091 642 1091 826 q 983 327 1091 458 q 881 239 942 277 q 970 86 926 174 q 1080 -167 1014 -1 q 1129 -278 1093 -199 l 785 -278 q 688 -56 728 -136 q 570 124 629 64 q 484 172 524 172 z "},"Ś":{"ha":1304,"x_min":41,"x_max":1263,"o":"m 643 1141 q 1022 1046 861 1141 q 1175 898 1114 992 q 1236 693 1236 804 l 920 693 q 909 738 920 722 q 861 776 897 754 q 764 812 823 798 q 643 827 705 827 q 521 812 581 827 q 424 776 462 798 q 376 739 388 755 q 365 693 365 722 q 367 664 365 674 q 372 651 370 654 q 383 640 374 648 q 487 592 411 613 q 687 556 540 577 q 911 516 833 535 q 1139 414 1057 481 q 1229 297 1194 370 q 1263 149 1263 225 q 1201 -63 1263 34 q 1043 -215 1138 -159 q 650 -308 878 -311 q 260 -208 424 -304 q 103 -58 165 -153 q 41 149 41 36 l 357 149 q 370 104 357 121 q 421 63 382 86 q 525 23 462 39 q 654 7 589 7 q 783 20 720 6 q 885 57 846 34 q 936 97 924 79 q 948 149 948 115 q 948 159 948 154 q 946 166 949 165 q 940 170 943 168 q 838 210 912 193 q 645 242 797 220 q 403 288 492 264 q 168 410 253 330 q 82 536 113 461 q 50 693 50 611 q 111 899 50 804 q 263 1047 172 993 q 643 1141 422 1141 m 667 1542 l 757 1436 l 465 1190 l 375 1297 l 667 1542 z "},"ś":{"ha":1048,"x_min":41,"x_max":1048,"o":"m 1008 1111 l 1008 796 q 897 784 939 796 q 834 753 855 772 q 789 698 812 734 q 735 574 760 652 q 686 377 711 496 q 677 337 685 374 q 667 293 669 300 q 657 252 665 286 q 646 206 650 218 q 634 164 642 195 q 619 119 625 134 q 602 77 612 104 q 583 32 592 50 q 560 -9 573 14 q 534 -52 547 -31 q 332 -225 460 -159 q 41 -290 203 -290 l 41 24 q 157 37 112 24 q 225 69 202 50 q 273 125 248 88 q 378 444 328 206 q 387 484 379 448 q 396 528 395 520 q 406 569 398 535 q 417 613 414 602 q 429 655 420 625 q 444 700 437 685 q 459 742 450 715 q 479 787 469 768 q 500 827 488 805 q 526 870 512 850 q 722 1045 596 979 q 1008 1111 848 1111 m 959 1526 l 1048 1419 l 756 1173 l 667 1280 l 959 1526 z "},"Š":{"ha":1304,"x_min":41,"x_max":1263,"o":"m 507 1641 l 643 1482 l 779 1641 l 906 1533 l 643 1225 l 379 1533 l 507 1641 m 643 1141 q 1022 1046 861 1141 q 1175 898 1114 992 q 1236 693 1236 804 l 920 693 q 909 738 920 722 q 861 776 897 754 q 764 812 823 798 q 643 827 705 827 q 521 812 581 827 q 424 776 462 798 q 376 739 388 755 q 365 693 365 722 q 367 664 365 674 q 372 651 370 654 q 383 640 374 648 q 487 592 411 613 q 687 556 540 577 q 911 516 833 535 q 1139 414 1057 481 q 1229 297 1194 370 q 1263 149 1263 225 q 1201 -63 1263 34 q 1043 -215 1138 -159 q 650 -308 878 -311 q 260 -208 424 -304 q 103 -58 165 -153 q 41 149 41 36 l 357 149 q 370 104 357 121 q 421 63 382 86 q 525 23 462 39 q 654 7 589 7 q 783 20 720 6 q 885 57 846 34 q 936 97 924 79 q 948 149 948 115 q 948 159 948 154 q 946 166 949 165 q 940 170 943 168 q 838 210 912 193 q 645 242 797 220 q 403 288 492 264 q 168 410 253 330 q 82 536 113 461 q 50 693 50 611 q 111 899 50 804 q 263 1047 172 993 q 643 1141 422 1141 z "},"š":{"ha":1048,"x_min":41,"x_max":1272,"o":"m 871 1624 l 1008 1465 l 1144 1624 l 1272 1514 l 1008 1207 l 744 1514 l 871 1624 m 1008 1111 l 1008 796 q 898 784 940 796 q 834 754 855 772 q 789 699 812 735 q 735 576 760 654 q 686 381 711 498 q 631 161 651 223 q 533 -44 593 43 q 331 -216 460 -151 q 41 -281 203 -281 l 41 35 q 133 41 95 35 q 196 61 170 47 q 239 91 222 75 q 273 134 255 107 q 378 449 328 214 q 387 489 380 454 q 396 532 395 524 q 406 573 398 541 q 417 617 413 605 q 429 659 420 629 q 444 703 437 688 q 459 745 450 719 q 479 789 469 771 q 500 830 488 808 q 526 872 512 852 q 723 1045 596 979 q 1008 1111 849 1111 z "},"Ū":{"ha":1283,"x_min":41,"x_max":1242,"o":"m 270 1350 l 1014 1350 l 1014 1210 l 270 1210 l 270 1350 m 41 1111 l 357 1111 l 357 319 q 445 87 357 170 q 642 14 524 14 q 839 87 760 14 q 927 319 927 170 l 927 1111 l 1242 1111 l 1242 319 q 1192 58 1242 178 q 1053 -143 1141 -62 q 862 -261 969 -221 q 642 -300 755 -300 q 422 -261 528 -300 q 231 -143 315 -221 q 92 58 142 -61 q 41 319 41 178 l 41 1111 z "},"ū":{"ha":1283,"x_min":41,"x_max":1242,"o":"m 270 1350 l 1014 1350 l 1014 1210 l 270 1210 l 270 1350 m 41 1111 l 357 1111 l 357 319 q 445 87 357 170 q 642 14 524 14 q 839 87 760 14 q 927 319 927 170 l 927 1111 l 1242 1111 l 1242 319 q 1192 58 1242 178 q 1053 -143 1141 -62 q 862 -261 969 -221 q 642 -300 755 -300 q 422 -261 528 -300 q 231 -143 315 -221 q 92 58 142 -61 q 41 319 41 178 l 41 1111 z "},"Ű":{"ha":1283,"x_min":41,"x_max":1242,"o":"m 41 1111 l 357 1111 l 357 319 q 445 87 357 170 q 642 14 524 14 q 839 87 760 14 q 927 319 927 170 l 927 1111 l 1242 1111 l 1242 319 q 1192 58 1242 178 q 1053 -143 1141 -62 q 862 -261 969 -221 q 642 -300 755 -300 q 422 -261 528 -300 q 231 -143 315 -221 q 92 58 142 -61 q 41 319 41 178 l 41 1111 m 818 1548 l 907 1442 l 614 1196 l 525 1302 l 818 1548 m 562 1554 l 652 1447 l 359 1201 l 269 1308 l 562 1554 z "},"ű":{"ha":1283,"x_min":41,"x_max":1242,"o":"m 41 1111 l 357 1111 l 357 319 q 445 87 357 170 q 642 14 524 14 q 839 87 760 14 q 927 319 927 170 l 927 1111 l 1242 1111 l 1242 319 q 1192 58 1242 178 q 1053 -143 1141 -62 q 862 -261 969 -221 q 642 -300 755 -300 q 422 -261 528 -300 q 231 -143 315 -221 q 92 58 142 -61 q 41 319 41 178 l 41 1111 m 818 1548 l 907 1442 l 614 1196 l 525 1302 l 818 1548 m 562 1554 l 652 1447 l 359 1201 l 269 1308 l 562 1554 z "},"Ŵ":{"ha":2244,"x_min":41,"x_max":2203,"o":"m 1859 1111 l 2203 1111 l 1589 -279 l 1487 -279 l 1374 -279 l 1272 -279 l 1122 59 l 973 -279 l 870 -279 l 758 -279 l 656 -279 l 41 1111 l 386 1111 l 814 141 l 950 449 l 658 1111 l 1002 1111 l 1122 839 l 1242 1111 l 1587 1111 l 1295 449 l 1430 141 l 1859 1111 m 1004 1228 l 1141 1388 l 1277 1228 l 1404 1337 l 1141 1645 l 877 1337 l 1004 1228 z "},"ŵ":{"ha":2244,"x_min":41,"x_max":2203,"o":"m 1859 1111 l 2203 1111 l 1589 -279 l 1487 -279 l 1374 -279 l 1272 -279 l 1122 59 l 973 -279 l 870 -279 l 758 -279 l 656 -279 l 41 1111 l 386 1111 l 814 141 l 950 449 l 658 1111 l 1002 1111 l 1122 839 l 1242 1111 l 1587 1111 l 1295 449 l 1430 141 l 1859 1111 m 1004 1228 l 1141 1388 l 1277 1228 l 1404 1337 l 1141 1645 l 877 1337 l 1004 1228 z "},"Ŷ":{"ha":1311,"x_min":41,"x_max":1270,"o":"m 41 1111 l 399 1111 l 656 635 l 912 1111 l 1270 1111 l 813 263 l 813 -278 l 498 -278 l 498 263 l 41 1111 m 513 1183 l 648 1341 l 785 1183 l 912 1292 l 648 1600 l 385 1292 l 513 1183 z "},"ŷ":{"ha":1311,"x_min":41,"x_max":1270,"o":"m 41 1111 l 399 1111 l 656 635 l 912 1111 l 1270 1111 l 813 263 l 813 -278 l 498 -278 l 498 263 l 41 1111 m 513 1183 l 648 1341 l 785 1183 l 912 1292 l 648 1600 l 385 1292 l 513 1183 z "},"Ÿ":{"ha":1311,"x_min":41,"x_max":1270,"o":"m 688 1469 l 951 1469 l 951 1207 l 688 1207 l 688 1469 m 360 1469 l 624 1469 l 624 1207 l 360 1207 l 360 1469 m 41 1111 l 399 1111 l 656 635 l 912 1111 l 1270 1111 l 813 263 l 813 -278 l 498 -278 l 498 263 l 41 1111 z "},"Ź":{"ha":1283,"x_min":41,"x_max":1243,"o":"m 830 1559 l 920 1453 l 627 1207 l 538 1314 l 830 1559 m 42 1111 l 1212 1111 l 1212 774 l 503 37 l 1243 37 l 1243 -278 l 41 -278 l 41 13 l 796 796 l 42 796 l 42 1111 z "},"ź":{"ha":1283,"x_min":41,"x_max":1243,"o":"m 830 1559 l 920 1453 l 627 1207 l 538 1314 l 830 1559 m 42 1111 l 1212 1111 l 1212 774 l 503 37 l 1243 37 l 1243 -278 l 41 -278 l 41 13 l 796 796 l 42 796 l 42 1111 z "},"Ż":{"ha":1283,"x_min":41,"x_max":1243,"o":"m 479 1491 l 774 1491 l 774 1207 l 479 1207 l 479 1491 m 42 1111 l 1212 1111 l 1212 774 l 503 37 l 1243 37 l 1243 -278 l 41 -278 l 41 13 l 796 796 l 42 796 l 42 1111 z "},"ż":{"ha":1283,"x_min":41,"x_max":1243,"o":"m 479 1491 l 774 1491 l 774 1207 l 479 1207 l 479 1491 m 42 1111 l 1212 1111 l 1212 774 l 503 37 l 1243 37 l 1243 -278 l 41 -278 l 41 13 l 796 796 l 42 796 l 42 1111 z "},"Ž":{"ha":1283,"x_min":41,"x_max":1243,"o":"m 491 1624 l 627 1465 l 763 1624 l 890 1514 l 627 1207 l 363 1514 l 491 1624 m 42 1111 l 1212 1111 l 1212 774 l 503 37 l 1243 37 l 1243 -278 l 41 -278 l 41 13 l 796 796 l 42 796 l 42 1111 z "},"ž":{"ha":1283,"x_min":41,"x_max":1243,"o":"m 491 1624 l 627 1465 l 763 1624 l 890 1514 l 627 1207 l 363 1514 l 491 1624 m 42 1111 l 1212 1111 l 1212 774 l 503 37 l 1243 37 l 1243 -278 l 41 -278 l 41 13 l 796 796 l 42 796 l 42 1111 z "},"Ș":{"ha":1304,"x_min":41,"x_max":1263,"o":"m 503 -391 l 798 -391 l 798 -635 l 634 -909 l 503 -909 l 503 -391 m 643 1141 q 1022 1046 861 1141 q 1175 898 1114 992 q 1236 693 1236 804 l 920 693 q 909 738 920 722 q 861 776 897 754 q 764 812 823 798 q 643 827 705 827 q 521 812 581 827 q 424 776 462 798 q 376 739 388 755 q 365 693 365 722 q 367 664 365 674 q 372 651 370 654 q 383 640 374 648 q 487 592 411 613 q 687 556 540 577 q 911 516 833 535 q 1139 414 1057 481 q 1229 297 1194 370 q 1263 149 1263 225 q 1201 -63 1263 34 q 1043 -215 1138 -159 q 650 -308 878 -311 q 260 -208 424 -304 q 103 -58 165 -153 q 41 149 41 36 l 357 149 q 370 104 357 121 q 421 63 382 86 q 525 23 462 39 q 654 7 589 7 q 783 20 720 6 q 885 57 846 34 q 936 97 924 79 q 948 149 948 115 q 948 159 948 154 q 946 166 949 165 q 940 170 943 168 q 838 210 912 193 q 645 242 797 220 q 403 288 492 264 q 168 410 253 330 q 82 536 113 461 q 50 693 50 611 q 111 899 50 804 q 263 1047 172 993 q 643 1141 422 1141 z "},"ș":{"ha":1048,"x_min":-106,"x_max":1008,"o":"m -106 -364 l 189 -364 l 189 -608 l 26 -882 l -106 -882 l -106 -364 m 1008 1111 l 1008 796 q 898 784 940 796 q 834 754 855 772 q 789 699 812 735 q 735 576 760 654 q 686 381 711 498 q 631 161 651 223 q 533 -44 593 43 q 331 -216 460 -151 q 41 -281 203 -281 l 41 35 q 133 41 95 35 q 196 61 170 47 q 239 91 222 75 q 273 134 255 107 q 378 449 328 214 q 387 489 380 454 q 396 532 395 524 q 406 573 398 541 q 417 617 413 605 q 429 659 420 629 q 444 703 437 688 q 459 745 450 719 q 479 789 469 771 q 500 830 488 808 q 526 872 512 852 q 723 1045 596 979 q 1008 1111 849 1111 z "},"Ț":{"ha":1229,"x_min":41,"x_max":1189,"o":"m 467 -361 l 763 -361 l 763 -605 l 599 -879 l 467 -879 l 467 -361 m 41 1111 l 1189 1111 l 1189 796 l 772 796 l 772 -278 l 458 -278 l 458 796 l 41 796 l 41 1111 z "},"ț":{"ha":1229,"x_min":41,"x_max":1189,"o":"m 467 -361 l 763 -361 l 763 -605 l 599 -879 l 467 -879 l 467 -361 m 41 1111 l 1189 1111 l 1189 796 l 772 796 l 772 -278 l 458 -278 l 458 796 l 41 796 l 41 1111 z "},"ˇ":{"ha":1283,"x_min":363,"x_max":890,"o":"m 491 1624 l 627 1465 l 763 1624 l 890 1514 l 627 1207 l 363 1514 l 491 1624 z "},"Ḃ":{"ha":1132,"x_min":41,"x_max":1092,"o":"m 285 1508 l 581 1508 l 581 1223 l 285 1223 l 285 1508 m 570 576 q 681 612 646 576 q 707 684 709 640 q 702 726 707 708 q 684 761 697 743 q 642 787 671 778 q 570 796 613 796 l 357 796 l 357 576 l 570 576 m 570 260 l 357 260 l 357 37 l 605 37 q 684 44 651 37 q 734 61 717 51 q 761 87 751 71 q 773 116 771 103 q 775 146 775 129 q 772 178 775 163 q 758 208 768 192 q 729 235 747 224 q 680 253 711 245 q 605 260 648 260 l 570 260 m 951 446 q 1053 310 1016 387 q 1090 151 1089 233 q 1056 -8 1092 69 q 957 -145 1020 -86 q 802 -241 894 -205 q 605 -277 709 -277 l 357 -277 l 357 -278 l 41 -278 l 41 -277 l 41 37 l 41 260 l 41 576 l 41 796 l 41 1111 l 357 1111 l 570 1111 q 752 1075 667 1111 q 896 979 838 1038 q 988 843 954 920 q 1023 688 1022 767 q 951 446 1025 555 z "},"ḃ":{"ha":1132,"x_min":41,"x_max":1092,"o":"m 418 1491 l 714 1491 l 714 1207 l 418 1207 l 418 1491 m 570 576 q 681 612 646 576 q 707 684 709 640 q 702 726 707 708 q 684 761 697 743 q 642 787 671 778 q 570 796 613 796 l 357 796 l 357 576 l 570 576 m 570 260 l 357 260 l 357 37 l 605 37 q 684 44 651 37 q 734 61 717 51 q 761 87 751 71 q 773 116 771 103 q 775 146 775 129 q 772 178 775 163 q 758 208 768 192 q 729 235 747 224 q 680 253 711 245 q 605 260 648 260 l 570 260 m 951 446 q 1053 310 1016 387 q 1090 151 1089 233 q 1056 -8 1092 69 q 957 -145 1020 -86 q 802 -241 894 -205 q 605 -277 709 -277 l 357 -277 l 357 -278 l 41 -278 l 41 -277 l 41 37 l 41 260 l 41 576 l 41 796 l 41 1111 l 357 1111 l 570 1111 q 752 1075 667 1111 q 896 979 838 1038 q 988 843 954 920 q 1023 688 1022 767 q 951 446 1025 555 z "},"Ḋ":{"ha":1242,"x_min":41,"x_max":1203,"o":"m 474 1491 l 770 1491 l 770 1207 l 474 1207 l 474 1491 m 357 796 l 357 37 l 503 37 q 789 153 685 37 q 861 274 836 204 q 887 418 886 343 q 863 562 888 492 q 793 681 839 631 q 503 796 690 796 l 357 796 m 41 796 l 41 1111 l 357 1111 l 503 1111 q 801 1053 665 1111 q 1028 891 937 994 q 1159 670 1116 793 q 1202 416 1203 547 q 1156 162 1200 285 q 1024 -58 1112 39 q 797 -219 932 -160 q 503 -277 663 -277 l 357 -277 l 357 -278 l 41 -278 l 41 -277 l 41 37 l 41 796 z "},"ḋ":{"ha":1242,"x_min":41,"x_max":1203,"o":"m 474 1491 l 770 1491 l 770 1207 l 474 1207 l 474 1491 m 357 796 l 357 37 l 503 37 q 789 153 685 37 q 861 274 836 204 q 887 418 886 343 q 863 562 888 492 q 793 681 839 631 q 503 796 690 796 l 357 796 m 41 796 l 41 1111 l 357 1111 l 503 1111 q 801 1053 665 1111 q 1028 891 937 994 q 1159 670 1116 793 q 1202 416 1203 547 q 1156 162 1200 285 q 1024 -58 1112 39 q 797 -219 932 -160 q 503 -277 663 -277 l 357 -277 l 357 -278 l 41 -278 l 41 -277 l 41 37 l 41 796 z "},"Ḟ":{"ha":1100,"x_min":41,"x_max":1059,"o":"m 403 1491 l 699 1491 l 699 1207 l 403 1207 l 403 1491 m 41 796 l 41 1111 l 357 1111 l 1059 1111 l 1059 796 l 357 796 l 357 574 l 1011 574 l 1011 259 l 357 259 l 357 -278 l 41 -278 l 41 259 l 41 574 l 41 796 z "},"ḟ":{"ha":1100,"x_min":41,"x_max":1059,"o":"m 403 1491 l 699 1491 l 699 1207 l 403 1207 l 403 1491 m 41 796 l 41 1111 l 357 1111 l 1059 1111 l 1059 796 l 357 796 l 357 574 l 1011 574 l 1011 259 l 357 259 l 357 -278 l 41 -278 l 41 259 l 41 574 l 41 796 z "},"Ṁ":{"ha":1604,"x_min":41,"x_max":1564,"o":"m 655 1491 l 951 1491 l 951 1207 l 655 1207 l 655 1491 m 41 1111 l 425 1111 l 803 338 l 1181 1111 l 1564 1111 l 1564 -278 l 1249 -278 l 1249 533 l 937 -104 l 803 -104 l 669 -104 l 357 533 l 357 -278 l 41 -278 l 41 1111 z "},"ṁ":{"ha":1604,"x_min":41,"x_max":1564,"o":"m 655 1491 l 951 1491 l 951 1207 l 655 1207 l 655 1491 m 41 1111 l 425 1111 l 803 338 l 1181 1111 l 1564 1111 l 1564 -278 l 1249 -278 l 1249 533 l 937 -104 l 803 -104 l 669 -104 l 357 533 l 357 -278 l 41 -278 l 41 1111 z "},"Ṗ":{"ha":1132,"x_min":41,"x_max":1091,"o":"m 195 1491 l 490 1491 l 490 1207 l 195 1207 l 195 1491 m 357 205 l 357 -278 l 41 -278 l 41 1111 l 290 1111 l 357 1111 l 643 1111 q 832 1072 744 1111 q 979 965 921 1032 q 1091 659 1091 836 q 980 352 1091 479 q 832 245 921 284 q 643 205 743 205 l 357 205 m 357 521 l 643 521 q 704 531 682 521 q 743 559 726 541 q 777 659 777 598 q 743 758 777 718 q 704 787 726 777 q 643 796 682 796 l 357 796 l 357 521 z "},"ṗ":{"ha":1132,"x_min":41,"x_max":1091,"o":"m 195 1491 l 490 1491 l 490 1207 l 195 1207 l 195 1491 m 357 205 l 357 -278 l 41 -278 l 41 1111 l 290 1111 l 357 1111 l 643 1111 q 832 1072 744 1111 q 979 965 921 1032 q 1091 659 1091 836 q 980 352 1091 479 q 832 245 921 284 q 643 205 743 205 l 357 205 m 357 521 l 643 521 q 704 531 682 521 q 743 559 726 541 q 777 659 777 598 q 743 758 777 718 q 704 787 726 777 q 643 796 682 796 l 357 796 l 357 521 z "},"Ṡ":{"ha":1304,"x_min":41,"x_max":1263,"o":"m 495 1509 l 791 1509 l 791 1225 l 495 1225 l 495 1509 m 643 1141 q 1022 1046 861 1141 q 1175 898 1114 992 q 1236 693 1236 804 l 920 693 q 909 738 920 722 q 861 776 897 754 q 764 812 823 798 q 643 827 705 827 q 521 812 581 827 q 424 776 462 798 q 376 739 388 755 q 365 693 365 722 q 367 664 365 674 q 372 651 370 654 q 383 640 374 648 q 487 592 411 613 q 687 556 540 577 q 911 516 833 535 q 1139 414 1057 481 q 1229 297 1194 370 q 1263 149 1263 225 q 1201 -63 1263 34 q 1043 -215 1138 -159 q 650 -308 878 -311 q 260 -208 424 -304 q 103 -58 165 -153 q 41 149 41 36 l 357 149 q 370 104 357 121 q 421 63 382 86 q 525 23 462 39 q 654 7 589 7 q 783 20 720 6 q 885 57 846 34 q 936 97 924 79 q 948 149 948 115 q 948 159 948 154 q 946 166 949 165 q 940 170 943 168 q 838 210 912 193 q 645 242 797 220 q 403 288 492 264 q 168 410 253 330 q 82 536 113 461 q 50 693 50 611 q 111 899 50 804 q 263 1047 172 993 q 643 1141 422 1141 z "},"ṡ":{"ha":1048,"x_min":41,"x_max":1156,"o":"m 860 1491 l 1156 1491 l 1156 1207 l 860 1207 l 860 1491 m 1008 1111 l 1008 796 q 898 784 940 796 q 834 754 855 772 q 789 699 812 735 q 735 576 760 654 q 686 381 711 498 q 631 161 651 223 q 533 -44 593 43 q 331 -216 460 -151 q 41 -281 203 -281 l 41 35 q 133 41 95 35 q 196 61 170 47 q 239 91 222 75 q 273 134 255 107 q 378 449 328 214 q 387 489 380 454 q 396 532 395 524 q 406 573 398 541 q 417 617 413 605 q 429 659 420 629 q 444 703 437 688 q 459 745 450 719 q 479 789 469 771 q 500 830 488 808 q 526 872 512 852 q 723 1045 596 979 q 1008 1111 849 1111 z "},"Ṫ":{"ha":1229,"x_min":41,"x_max":1189,"o":"m 504 1185 q 481 1209 504 1185 q 457 1300 457 1233 q 504 1415 457 1367 q 618 1462 551 1462 q 733 1415 686 1462 q 781 1300 781 1367 q 733 1185 781 1233 q 618 1138 686 1138 q 504 1185 551 1138 m 458 796 l 41 796 l 41 1111 l 458 1111 l 772 1111 l 1189 1111 l 1189 796 l 772 796 l 772 -278 l 458 -278 l 458 796 z "},"ṫ":{"ha":1229,"x_min":41,"x_max":1189,"o":"m 504 1185 q 481 1209 504 1185 q 457 1300 457 1233 q 504 1415 457 1367 q 618 1462 551 1462 q 733 1415 686 1462 q 781 1300 781 1367 q 733 1185 781 1233 q 618 1138 686 1138 q 504 1185 551 1138 m 458 796 l 41 796 l 41 1111 l 458 1111 l 772 1111 l 1189 1111 l 1189 796 l 772 796 l 772 -278 l 458 -278 l 458 796 z "},"Ẁ":{"ha":2244,"x_min":41,"x_max":2203,"o":"m 1325 1559 l 1415 1453 l 1122 1207 l 1033 1314 l 1325 1559 m 1859 1111 l 2203 1111 l 1589 -279 l 1487 -279 l 1374 -279 l 1272 -279 l 1122 59 l 973 -279 l 870 -279 l 758 -279 l 656 -279 l 41 1111 l 386 1111 l 814 141 l 950 449 l 658 1111 l 1002 1111 l 1122 839 l 1242 1111 l 1587 1111 l 1295 449 l 1430 141 l 1859 1111 z "},"ẁ":{"ha":2244,"x_min":41,"x_max":2203,"o":"m 1325 1559 l 1415 1453 l 1122 1207 l 1033 1314 l 1325 1559 m 1859 1111 l 2203 1111 l 1589 -279 l 1487 -279 l 1374 -279 l 1272 -279 l 1122 59 l 973 -279 l 870 -279 l 758 -279 l 656 -279 l 41 1111 l 386 1111 l 814 141 l 950 449 l 658 1111 l 1002 1111 l 1122 839 l 1242 1111 l 1587 1111 l 1295 449 l 1430 141 l 1859 1111 z "},"Ẃ":{"ha":2244,"x_min":41,"x_max":2203,"o":"m 1325 1559 l 1415 1453 l 1122 1207 l 1033 1314 l 1325 1559 m 1859 1111 l 2203 1111 l 1589 -279 l 1487 -279 l 1374 -279 l 1272 -279 l 1122 59 l 973 -279 l 870 -279 l 758 -279 l 656 -279 l 41 1111 l 386 1111 l 814 141 l 950 449 l 658 1111 l 1002 1111 l 1122 839 l 1242 1111 l 1587 1111 l 1295 449 l 1430 141 l 1859 1111 z "},"ẃ":{"ha":2244,"x_min":41,"x_max":2203,"o":"m 1325 1559 l 1415 1453 l 1122 1207 l 1033 1314 l 1325 1559 m 1859 1111 l 2203 1111 l 1589 -279 l 1487 -279 l 1374 -279 l 1272 -279 l 1122 59 l 973 -279 l 870 -279 l 758 -279 l 656 -279 l 41 1111 l 386 1111 l 814 141 l 950 449 l 658 1111 l 1002 1111 l 1122 839 l 1242 1111 l 1587 1111 l 1295 449 l 1430 141 l 1859 1111 z "},"Ẅ":{"ha":2244,"x_min":41,"x_max":2203,"o":"m 1154 1469 l 1418 1469 l 1418 1207 l 1154 1207 l 1154 1469 m 827 1469 l 1090 1469 l 1090 1207 l 827 1207 l 827 1469 m 1859 1111 l 2203 1111 l 1589 -279 l 1487 -279 l 1374 -279 l 1272 -279 l 1122 59 l 973 -279 l 870 -279 l 758 -279 l 656 -279 l 41 1111 l 386 1111 l 814 141 l 950 449 l 658 1111 l 1002 1111 l 1122 839 l 1242 1111 l 1587 1111 l 1295 449 l 1430 141 l 1859 1111 z "},"ẅ":{"ha":2244,"x_min":41,"x_max":2203,"o":"m 1154 1469 l 1418 1469 l 1418 1207 l 1154 1207 l 1154 1469 m 827 1469 l 1090 1469 l 1090 1207 l 827 1207 l 827 1469 m 1859 1111 l 2203 1111 l 1589 -279 l 1487 -279 l 1374 -279 l 1272 -279 l 1122 59 l 973 -279 l 870 -279 l 758 -279 l 656 -279 l 41 1111 l 386 1111 l 814 141 l 950 449 l 658 1111 l 1002 1111 l 1122 839 l 1242 1111 l 1587 1111 l 1295 449 l 1430 141 l 1859 1111 z "},"Ỳ":{"ha":1311,"x_min":41,"x_max":1270,"o":"m 859 1559 l 948 1453 l 656 1207 l 566 1314 l 859 1559 m 41 1111 l 399 1111 l 656 635 l 912 1111 l 1270 1111 l 813 263 l 813 -278 l 498 -278 l 498 263 l 41 1111 z "},"ỳ":{"ha":1311,"x_min":41,"x_max":1270,"o":"m 859 1559 l 948 1453 l 656 1207 l 566 1314 l 859 1559 m 41 1111 l 399 1111 l 656 635 l 912 1111 l 1270 1111 l 813 263 l 813 -278 l 498 -278 l 498 263 l 41 1111 z "},"":{"ha":1074,"x_min":41,"x_max":1034,"o":"m 405 1111 l 670 1111 l 1034 -278 l 708 -278 l 665 -117 l 409 -118 l 368 -278 l 41 -278 l 405 1111 m 583 198 l 538 373 l 492 197 l 583 198 z "},"":{"ha":2323,"x_min":41,"x_max":2283,"o":"m 566 1111 l 1758 1111 l 2283 -278 l 1946 -278 l 1839 5 l 486 5 l 378 -278 l 41 -278 l 566 1111 m 1721 321 l 1541 796 l 784 796 l 604 321 l 1721 321 z "},"":{"ha":1457,"x_min":41,"x_max":1416,"o":"m 729 809 q 543 758 628 809 q 407 615 457 706 q 357 416 357 525 q 386 265 357 338 q 468 138 415 193 q 588 54 521 83 q 729 24 656 24 q 870 54 802 24 q 990 138 937 83 q 1072 265 1043 193 q 1101 416 1101 337 q 1072 568 1101 496 q 990 696 1043 641 q 870 780 937 751 q 729 809 802 809 m 729 1124 q 994 1069 867 1124 q 1217 915 1120 1015 q 1364 686 1312 815 q 1416 416 1416 556 q 1364 148 1416 277 q 1217 -81 1313 18 q 943 -255 1102 -201 q 956 -309 948 -290 q 971 -342 964 -330 q 996 -374 978 -355 q 1039 -409 1013 -393 q 1109 -444 1064 -424 q 1216 -483 1154 -463 l 1120 -783 q 818 -628 932 -723 q 661 -421 704 -534 q 621 -281 635 -353 q 415 -213 513 -264 q 241 -81 318 -161 q 93 148 144 18 q 41 416 41 277 q 96 689 41 559 q 242 915 150 820 q 461 1067 334 1010 q 729 1124 589 1124 z "},"":{"ha":1010,"x_min":41,"x_max":970,"o":"m 506 818 q 396 783 438 818 q 366 745 376 766 q 357 686 357 724 l 357 132 q 365 82 357 99 q 393 50 373 65 q 506 15 438 15 q 618 50 574 15 q 647 82 639 65 q 655 132 655 99 l 655 686 q 645 745 655 724 q 615 783 635 766 q 506 818 573 818 m 194 1023 q 506 1133 324 1133 q 818 1023 688 1133 q 928 876 887 965 q 970 686 970 787 l 970 132 q 927 -54 970 33 q 814 -197 885 -140 q 506 -300 686 -300 q 197 -197 326 -300 q 84 -54 126 -140 q 41 132 41 33 l 41 686 q 83 876 41 787 q 194 1023 124 965 z "},"":{"ha":2652,"x_min":40,"x_max":2614,"o":"m 644 796 q 519 771 568 796 q 433 694 471 746 q 376 573 396 644 q 357 424 355 501 q 381 274 358 347 q 441 150 404 201 q 528 72 481 97 q 644 47 575 47 l 1963 47 q 2102 75 2045 47 q 2204 156 2159 102 q 2271 278 2246 207 q 2297 425 2296 349 q 2277 570 2298 500 q 2216 688 2256 639 q 2114 768 2174 741 q 1963 796 2054 796 l 644 796 m 644 1111 l 1963 1111 q 2247 1050 2117 1111 q 2460 886 2376 990 q 2577 668 2540 789 q 2612 418 2614 547 q 2568 171 2609 290 q 2446 -45 2526 52 q 2235 -208 2361 -147 q 1963 -269 2110 -269 l 644 -269 q 386 -206 505 -269 q 189 -39 267 -143 q 42 418 47 151 q 74 665 40 545 q 179 881 107 784 q 378 1048 256 985 q 644 1111 500 1111 z "},"":{"ha":1122,"x_min":41,"x_max":1081,"o":"m 735 1111 l 1050 1111 q 850 540 1050 750 q 745 450 803 490 q 871 334 814 399 q 1029 51 978 209 q 1081 -278 1081 -108 l 766 -278 q 732 -53 766 -159 q 632 128 698 52 q 357 287 526 252 l 357 -278 l 41 -278 l 41 1111 l 357 1111 l 357 631 q 622 757 529 660 q 735 1111 735 875 z "},"":{"ha":859,"x_min":41,"x_max":818,"o":"m 431 816 q 404 814 414 816 q 381 802 394 812 q 363 770 369 793 q 357 709 357 747 l 357 113 q 362 59 357 79 q 380 30 368 38 q 402 19 393 21 q 431 18 412 18 q 435 18 433 18 q 463 19 454 18 q 483 29 471 21 q 498 58 494 37 q 503 113 503 79 l 503 709 q 501 749 503 732 q 496 778 498 767 q 486 797 493 789 q 475 809 479 805 q 460 814 471 812 q 447 816 450 816 q 431 816 443 816 m 286 1098 q 320 1114 286 1098 q 429 1131 355 1131 q 572 1100 502 1132 q 697 1013 642 1068 q 785 878 751 958 q 818 709 818 798 l 818 113 q 784 -53 818 26 q 695 -184 750 -131 q 570 -268 640 -237 q 429 -298 500 -298 q 287 -266 357 -297 q 163 -182 218 -235 q 75 -51 109 -129 q 41 113 41 26 l 41 709 q 74 877 41 798 q 161 1011 107 957 q 286 1098 216 1066 z "},"":{"ha":2810,"x_min":41,"x_max":2770,"o":"m 497 1111 l 2241 1111 q 2411 1077 2330 1111 q 2546 989 2491 1044 q 2632 863 2600 934 q 2663 718 2664 792 l 2348 721 q 2347 739 2348 733 q 2344 756 2346 745 q 2334 772 2341 766 q 2316 784 2327 778 q 2286 793 2305 791 q 2241 796 2266 796 l 497 796 q 422 787 452 796 q 379 761 392 779 q 361 727 366 744 q 357 684 357 709 q 361 642 357 659 q 379 607 366 625 q 422 581 392 589 q 497 572 452 572 l 2319 572 q 2501 535 2415 572 q 2645 440 2587 499 q 2736 306 2703 381 q 2770 152 2770 231 q 2736 -2 2770 73 q 2645 -137 2703 -78 q 2501 -232 2587 -196 q 2319 -269 2415 -269 l 486 -269 q 323 -236 400 -269 q 193 -151 246 -204 q 109 -31 140 -98 q 75 107 77 37 l 390 116 q 391 97 390 102 q 394 82 391 92 q 402 67 396 71 q 418 57 408 62 q 445 49 428 51 q 486 47 462 47 l 2319 47 q 2381 53 2355 47 q 2421 68 2407 59 q 2442 92 2435 77 q 2452 120 2450 107 q 2454 152 2454 134 q 2452 183 2454 170 q 2442 212 2450 197 q 2421 236 2435 227 q 2381 251 2407 245 q 2319 257 2355 257 l 497 257 q 312 294 399 257 q 168 391 226 331 q 75 528 109 451 q 41 684 41 605 q 75 840 41 764 q 168 977 109 917 q 312 1074 226 1037 q 497 1111 399 1111 z "},"":{"ha":1587,"x_min":41,"x_max":1546,"o":"m 497 1111 l 1017 1111 q 1187 1077 1107 1111 q 1322 989 1267 1044 q 1409 863 1377 934 q 1440 718 1440 792 l 1124 721 q 1124 739 1124 733 q 1120 756 1123 745 q 1111 772 1118 766 q 1093 784 1104 778 q 1062 793 1082 791 q 1017 796 1043 796 l 497 796 q 422 787 452 796 q 379 761 392 779 q 361 727 366 744 q 357 684 357 709 q 361 642 357 659 q 379 607 366 625 q 422 581 392 589 q 497 572 452 572 l 1095 572 q 1277 535 1192 572 q 1421 440 1363 499 q 1513 306 1479 381 q 1546 152 1546 231 q 1513 -2 1546 73 q 1421 -137 1479 -78 q 1277 -232 1363 -196 q 1095 -269 1192 -269 l 486 -269 q 323 -236 400 -269 q 193 -151 246 -204 q 109 -31 140 -98 q 75 107 77 37 l 390 116 q 391 97 390 102 q 394 82 391 92 q 402 67 396 71 q 418 57 408 62 q 445 49 428 51 q 486 47 462 47 l 1095 47 q 1158 53 1132 47 q 1197 68 1183 59 q 1219 92 1211 77 q 1229 120 1227 107 q 1231 152 1231 134 q 1229 183 1231 170 q 1219 212 1227 197 q 1197 236 1211 227 q 1158 251 1183 245 q 1095 257 1132 257 l 497 257 q 312 294 399 257 q 168 391 226 331 q 75 528 109 451 q 41 684 41 605 q 75 840 41 764 q 168 977 109 917 q 312 1074 226 1037 q 497 1111 399 1111 z "},"":{"ha":2602,"x_min":41,"x_max":2563,"o":"m 2102 576 q 2142 581 2130 576 q 2166 601 2155 587 q 2184 636 2177 614 q 2190 684 2191 659 q 2163 770 2189 737 q 2139 790 2151 785 q 2102 796 2127 796 l 357 796 l 357 576 l 473 576 l 2102 576 m 473 260 l 357 260 l 357 37 l 2131 37 q 2188 45 2168 37 q 2221 69 2207 54 q 2247 147 2247 100 q 2217 229 2245 196 q 2184 253 2203 245 q 2131 260 2165 260 l 2102 260 l 473 260 m 2443 448 q 2446 444 2444 447 q 2450 440 2449 441 q 2561 151 2559 320 q 2455 -141 2563 -20 q 2313 -241 2397 -205 q 2131 -277 2228 -277 l 357 -277 l 357 -278 l 41 -278 l 41 1111 l 228 1111 l 357 1111 l 2102 1111 q 2273 1072 2193 1111 q 2406 970 2354 1034 q 2505 688 2503 852 q 2443 448 2507 553 z "},"":{"ha":3523,"x_min":41,"x_max":3484,"o":"m 357 796 l 357 37 l 2730 37 q 2899 59 2824 37 q 3024 116 2974 80 q 3107 201 3073 152 q 3154 305 3140 251 q 3168 418 3168 359 q 3155 531 3168 477 q 3109 633 3141 584 q 3027 718 3076 682 q 2902 775 2978 753 q 2730 796 2826 796 l 357 796 m 357 -277 l 357 -278 l 41 -278 l 41 1111 l 96 1111 l 357 1111 l 2730 1111 q 2949 1083 2845 1111 q 3135 1007 3053 1056 q 3283 893 3217 959 q 3394 750 3350 827 q 3460 587 3437 673 q 3483 416 3484 502 q 3449 211 3482 312 q 3351 22 3416 110 q 3197 -133 3286 -66 q 2987 -239 3107 -200 q 2730 -277 2866 -277 l 357 -277 z "},"":{"ha":859,"x_min":41,"x_max":818,"o":"m 287 1104 q 322 1120 287 1104 q 429 1136 357 1135 q 570 1106 500 1137 q 695 1022 640 1075 q 784 891 750 969 q 818 725 818 812 l 818 -278 l 503 -278 l 503 46 l 357 46 l 357 -278 l 41 -278 l 41 725 q 75 889 41 812 q 163 1020 109 967 q 287 1104 218 1074 m 357 361 l 503 361 l 503 725 q 501 762 503 746 q 496 788 498 777 q 487 805 494 798 q 476 815 479 812 q 462 820 473 818 q 448 821 452 821 q 431 821 444 821 q 408 821 416 821 q 389 815 400 820 q 371 800 377 810 q 361 771 366 790 q 357 725 357 753 l 357 361 z "},"":{"ha":859,"x_min":41,"x_max":818,"o":"m 41 1111 l 357 1111 l 357 109 q 361 62 357 81 q 371 34 366 43 q 389 19 377 24 q 408 13 400 14 q 431 12 416 12 q 448 12 444 12 q 462 14 452 12 q 476 19 473 16 q 487 28 479 22 q 496 46 494 35 q 501 72 498 56 q 503 109 503 87 l 503 1111 l 818 1111 l 818 109 q 784 -57 818 21 q 695 -189 750 -136 q 570 -272 640 -241 q 429 -302 500 -303 q 287 -271 357 -302 q 163 -187 218 -240 q 75 -56 109 -134 q 41 109 41 22 l 41 1111 z "},"":{"ha":1925,"x_min":41,"x_max":1884,"o":"m 714 1111 l 1211 1111 q 1496 1052 1366 1111 q 1715 890 1627 993 l 1476 684 q 1367 767 1430 739 q 1211 796 1303 796 l 714 796 q 559 767 622 796 q 449 684 496 739 q 381 565 406 634 q 357 420 357 495 q 379 277 356 346 q 446 158 403 208 q 556 76 492 104 q 714 47 620 47 l 1211 47 q 1369 76 1305 47 q 1479 158 1433 104 q 1541 264 1518 203 l 619 264 l 619 578 l 1883 578 l 1883 422 q 1843 171 1884 293 q 1718 -47 1801 50 q 1499 -209 1630 -150 q 1211 -269 1367 -269 l 714 -269 q 427 -209 558 -269 q 207 -47 295 -150 q 82 171 123 50 q 41 422 41 293 q 84 672 42 551 q 210 890 127 793 q 429 1052 298 993 q 714 1111 559 1111 z "},"":{"ha":859,"x_min":41,"x_max":818,"o":"m 286 1098 q 320 1114 286 1098 q 429 1131 355 1131 q 572 1100 502 1132 q 697 1013 642 1068 q 785 878 751 958 q 818 709 818 798 l 818 561 l 503 561 l 503 709 q 501 749 503 732 q 496 778 498 767 q 486 797 493 789 q 475 809 479 805 q 460 814 471 812 q 447 816 450 816 q 431 816 443 816 q 404 814 414 816 q 381 802 394 812 q 363 770 369 793 q 357 709 357 747 l 357 113 q 362 59 357 79 q 380 30 368 38 q 402 19 393 21 q 431 18 412 18 q 435 18 433 18 q 463 19 454 18 q 483 29 471 21 q 498 58 494 37 q 503 113 503 79 l 503 199 l 431 199 l 431 513 l 818 513 l 818 113 q 784 -53 818 26 q 695 -184 750 -131 q 570 -268 640 -237 q 429 -298 500 -298 q 287 -266 357 -297 q 163 -182 218 -235 q 75 -51 109 -129 q 41 113 41 26 l 41 709 q 74 877 41 798 q 161 1011 107 957 q 286 1098 216 1066 z "},"":{"ha":663,"x_min":41,"x_max":623,"o":"m 41 796 l 41 1111 l 357 1111 l 623 1111 l 623 796 l 357 796 l 357 574 l 596 574 l 596 259 l 357 259 l 357 37 l 623 37 l 623 -278 l 357 -278 l 41 -278 l 41 37 l 41 259 l 41 574 l 41 796 z "},"":{"ha":663,"x_min":41,"x_max":623,"o":"m 41 796 l 41 1111 l 357 1111 l 623 1111 l 623 796 l 357 796 l 357 574 l 596 574 l 596 259 l 357 259 l 357 -278 l 41 -278 l 41 259 l 41 574 l 41 796 z "},"":{"ha":2680,"x_min":41,"x_max":2639,"o":"m 41 796 l 41 1111 l 357 1111 l 2639 1111 l 2639 796 l 357 796 l 357 574 l 2591 574 l 2591 259 l 357 259 l 357 37 l 2639 37 l 2639 -278 l 357 -278 l 41 -278 l 41 37 l 41 259 l 41 574 l 41 796 z "},"":{"ha":2680,"x_min":41,"x_max":2639,"o":"m 41 796 l 41 1111 l 357 1111 l 2639 1111 l 2639 796 l 357 796 l 357 574 l 2591 574 l 2591 259 l 357 259 l 357 -278 l 41 -278 l 41 259 l 41 574 l 41 796 z "},"":{"ha":859,"x_min":41,"x_max":818,"o":"m 286 1098 q 320 1114 286 1098 q 429 1131 355 1131 q 572 1100 502 1132 q 697 1013 642 1068 q 785 878 751 958 q 818 709 818 798 l 818 561 l 503 561 l 503 709 q 501 749 503 732 q 496 778 498 767 q 486 797 493 789 q 475 809 479 805 q 460 814 471 812 q 447 816 450 816 q 431 816 443 816 q 404 814 414 816 q 381 802 394 812 q 363 770 369 793 q 357 709 357 747 l 357 113 q 362 59 357 79 q 380 30 368 38 q 402 19 393 21 q 431 18 412 18 q 435 18 433 18 q 463 19 454 18 q 483 29 471 21 q 498 58 494 37 q 503 113 503 79 l 503 309 l 818 309 l 818 113 q 784 -53 818 26 q 695 -184 750 -131 q 570 -268 640 -237 q 429 -298 500 -298 q 287 -266 357 -297 q 163 -182 218 -235 q 75 -51 109 -129 q 41 113 41 26 l 41 709 q 74 877 41 798 q 161 1011 107 957 q 286 1098 216 1066 z "},"":{"ha":1010,"x_min":41,"x_max":970,"o":"m 41 1111 l 357 1111 l 357 616 q 365 566 357 583 q 393 533 373 549 q 506 498 438 498 q 618 533 574 498 q 647 566 639 549 q 655 616 655 583 l 655 1111 l 970 1111 l 970 616 q 927 430 970 517 q 814 287 885 343 q 663 207 747 233 l 663 -278 l 349 -278 l 349 207 q 197 287 264 234 q 84 430 126 343 q 41 616 41 517 l 41 1111 z "},"":{"ha":859,"x_min":41,"x_max":818,"o":"m 41 1111 l 357 1111 l 357 619 q 362 565 357 585 q 380 535 368 544 q 402 525 393 527 q 431 524 412 524 q 435 524 433 524 q 463 525 454 524 q 483 535 471 527 q 498 564 494 543 q 503 619 503 585 l 503 1111 l 818 1111 l 818 619 q 753 394 818 494 q 587 245 688 295 l 587 -278 l 273 -278 l 273 246 q 106 395 172 296 q 41 619 41 494 l 41 1111 z "},"":{"ha":2487,"x_min":41,"x_max":2447,"o":"m 2132 1111 l 2447 1111 l 2447 -278 l 2132 -278 l 2132 259 l 357 259 l 357 -278 l 41 -278 l 41 1111 l 357 1111 l 357 574 l 2132 574 l 2132 1111 z "},"":{"ha":871,"x_min":41,"x_max":830,"o":"m 515 1111 l 830 1111 l 830 -278 l 515 -278 l 515 259 l 357 259 l 357 -278 l 41 -278 l 41 1111 l 357 1111 l 357 574 l 515 574 l 515 1111 z "},"":{"ha":639,"x_min":41,"x_max":598,"o":"m 41 1111 l 357 1111 l 357 37 l 598 37 l 598 -278 l 41 -278 l 41 1111 z "},"":{"ha":2391,"x_min":41,"x_max":2351,"o":"m 41 1111 l 357 1111 l 357 37 l 2351 37 l 2351 -278 l 357 -278 l 199 -278 l 41 -278 l 41 1111 z "},"":{"ha":397,"x_min":41,"x_max":357,"o":"m 41 1111 l 357 1111 l 357 -278 l 41 -278 l 41 1111 z "},"":{"ha":1934,"x_min":41,"x_max":1893,"o":"m 810 1111 l 1125 1111 l 1893 1111 l 1893 796 l 1125 796 l 1125 37 l 1893 37 l 1893 -278 l 1125 -278 l 810 -278 l 41 -278 l 41 37 l 810 37 l 810 796 l 41 796 l 41 1111 l 810 1111 z "},"":{"ha":1161,"x_min":41,"x_max":1120,"o":"m 41 1111 l 395 1111 l 581 513 l 766 1111 l 1120 1111 l 1120 -278 l 805 -278 l 805 172 l 720 -104 l 581 -104 l 441 -104 l 357 172 l 357 -278 l 41 -278 l 41 1111 z "},"":{"ha":981,"x_min":41,"x_max":941,"o":"m 41 1111 l 378 1111 l 625 475 l 625 1111 l 941 1111 l 941 -279 l 581 -279 l 357 298 l 357 -278 l 41 -278 l 41 1111 z "},"":{"ha":2358,"x_min":41,"x_max":2317,"o":"m 357 205 l 357 -278 l 41 -278 l 41 1111 l 264 1111 l 357 1111 l 1870 1111 q 2059 1072 1971 1111 q 2206 965 2148 1032 q 2317 659 2317 837 q 2206 352 2317 479 q 2058 245 2146 284 q 1870 205 1970 205 l 357 205 m 357 521 l 1870 521 q 1930 530 1909 521 q 1969 559 1952 540 q 2003 659 2003 598 q 1969 758 2003 718 q 1930 787 1952 777 q 1870 796 1909 796 l 357 796 l 357 521 z "},"":{"ha":2337,"x_min":41,"x_max":2296,"o":"m 1651 488 l 1810 488 q 1869 497 1849 488 q 1907 528 1889 507 q 1943 642 1943 570 q 1907 755 1943 713 q 1869 786 1889 777 q 1810 796 1848 796 l 357 796 l 357 488 l 1651 488 m 1651 172 l 357 172 l 357 -278 l 41 -278 l 41 1111 l 264 1111 l 357 1111 l 1810 1111 q 2001 1069 1912 1111 q 2149 957 2091 1027 q 2258 642 2258 825 q 2149 327 2258 458 q 2048 239 2108 277 q 2137 86 2094 174 q 2247 -167 2178 5 q 2296 -278 2260 -199 l 1952 -278 q 1855 -56 1895 -136 q 1737 124 1796 64 q 1651 172 1691 172 z "},"":{"ha":2394,"x_min":41,"x_max":2354,"o":"m 42 1111 l 2323 1111 l 2323 736 l 777 37 l 2354 37 l 2354 -278 l 41 -278 l 41 51 l 1692 796 l 42 796 l 42 1111 z "},"":{"ha":2652,"x_min":40,"x_max":2614,"o":"m 644 793 q 519 768 568 793 q 433 691 471 743 q 376 570 396 642 q 357 421 355 498 q 381 271 358 344 q 441 147 404 198 q 528 69 481 94 q 644 43 575 43 l 1963 43 q 2102 71 2045 43 q 2204 153 2159 99 q 2271 275 2246 204 q 2297 422 2296 346 q 2277 567 2298 498 q 2216 685 2256 636 q 2114 766 2174 738 q 1963 793 2054 793 l 644 793 m 644 1108 l 1963 1108 q 2247 1048 2117 1108 q 2460 884 2376 987 q 2577 665 2540 786 q 2612 415 2614 544 q 2568 168 2609 288 q 2446 -47 2526 49 q 2260 -198 2370 -140 q 2022 -269 2150 -257 q 2032 -309 2026 -292 q 2047 -342 2040 -330 q 2072 -374 2054 -355 q 2115 -409 2089 -393 q 2185 -444 2140 -424 q 2292 -483 2230 -463 l 2197 -783 q 1894 -628 2008 -723 q 1737 -421 1780 -534 q 1695 -271 1710 -349 l 644 -271 q 386 -209 505 -271 q 189 -42 267 -146 q 42 416 47 149 q 74 662 40 543 q 179 878 107 781 q 378 1045 256 983 q 644 1108 500 1108 z "},"":{"ha":887,"x_min":41,"x_max":847,"o":"m 41 1111 l 357 1111 l 357 1110 l 428 1110 q 630 1046 534 1110 q 771 884 726 981 q 830 680 814 793 q 847 416 847 568 q 830 152 847 264 q 772 -52 814 39 q 630 -214 726 -149 q 428 -278 534 -278 l 357 -278 l 233 -278 l 41 -278 l 41 1111 m 357 37 l 428 37 q 464 40 460 37 q 486 82 468 43 q 519 211 506 123 q 532 416 532 298 q 519 622 532 534 q 486 751 506 709 q 464 792 468 789 q 428 795 460 795 l 357 795 l 357 37 z "},"":{"ha":887,"x_min":41,"x_max":847,"o":"m 428 596 q 466 602 454 596 q 488 620 477 607 q 513 696 513 648 q 488 772 513 744 q 475 786 481 781 q 458 793 470 790 q 428 796 446 796 l 357 796 l 357 596 l 428 596 m 428 281 l 357 281 l 357 37 l 428 37 q 474 44 459 37 q 503 68 490 52 q 532 159 532 102 q 503 251 532 216 q 474 274 490 267 q 428 281 459 281 m 751 445 q 847 159 847 324 q 745 -134 847 -12 q 607 -239 690 -199 q 428 -278 523 -278 l 357 -278 l 233 -278 l 41 -278 l 41 1111 l 233 1111 l 357 1111 l 428 1111 q 598 1074 518 1111 q 730 974 678 1036 q 827 696 827 857 q 751 445 827 553 z "},"":{"ha":1151,"x_min":41,"x_max":1109,"o":"m 500 1111 l 581 1111 q 751 1077 671 1111 q 886 989 831 1044 q 972 863 941 934 q 1004 718 1004 792 l 688 721 q 688 739 688 733 q 684 756 687 745 q 675 772 682 766 q 657 784 668 778 q 626 793 646 791 q 581 796 607 796 l 500 796 q 425 787 454 796 q 381 761 395 779 q 364 727 368 744 q 359 684 359 709 q 364 642 359 659 q 381 607 368 625 q 425 581 395 589 q 500 572 454 572 l 659 572 q 841 535 755 572 q 984 440 926 499 q 1076 306 1042 381 q 1109 152 1109 231 q 1076 -2 1109 73 q 984 -137 1042 -78 q 841 -232 926 -196 q 659 -269 755 -269 l 452 -269 q 290 -236 367 -269 q 160 -151 213 -204 q 75 -31 106 -98 q 41 107 43 37 l 357 116 q 357 97 357 102 q 360 82 358 92 q 369 67 363 71 q 385 57 374 62 q 412 49 395 51 q 452 47 429 47 l 659 47 q 732 55 703 47 q 774 80 762 64 q 791 113 787 97 q 795 152 795 128 q 791 191 795 176 q 774 223 787 207 q 732 249 762 240 q 659 257 703 257 l 500 257 q 315 294 401 257 q 170 391 229 331 q 78 528 112 451 q 44 684 44 605 q 78 840 44 764 q 170 977 112 917 q 315 1074 229 1037 q 500 1111 401 1111 z "},"":{"ha":863,"x_min":41,"x_max":823,"o":"m 595 652 l 823 425 l 595 197 l 368 425 l 595 652 m 41 796 l 41 1111 l 357 1111 l 817 1111 l 817 796 l 357 796 l 357 37 l 817 37 l 817 -278 l 357 -278 l 41 -278 l 41 37 l 41 796 z "},"":{"ha":883,"x_min":41,"x_max":843,"o":"m 595 623 l 823 396 l 595 168 l 368 396 l 595 623 m 41 796 l 41 1111 l 357 1111 l 843 1111 l 843 796 l 357 796 l 357 -278 l 41 -278 l 41 796 z "},"":{"ha":1518,"x_min":41,"x_max":1477,"o":"m 566 1111 l 952 1111 l 1477 -278 l 1140 -278 l 760 730 l 378 -278 l 41 -278 l 566 1111 m 758 294 l 986 66 l 758 -161 l 531 66 l 758 294 z "},"":{"ha":1184,"x_min":41,"x_max":1143,"o":"m 828 1111 l 1143 1111 l 1143 -278 l 828 -278 l 828 1111 m 41 1111 l 357 1111 l 357 -278 l 41 -278 l 41 1111 m 593 628 l 821 400 l 593 173 l 366 400 l 593 628 z "},"":{"ha":1457,"x_min":41,"x_max":1416,"o":"m 729 809 q 543 758 628 809 q 407 615 457 706 q 357 416 357 525 q 386 265 357 338 q 468 138 415 193 q 588 54 521 83 q 729 24 656 24 q 870 54 802 24 q 990 138 937 83 q 1072 265 1043 193 q 1101 416 1101 337 q 1072 568 1101 496 q 990 696 1043 641 q 870 780 937 751 q 729 809 802 809 m 729 1124 q 994 1069 867 1124 q 1217 915 1120 1015 q 1364 686 1312 815 q 1416 416 1416 556 q 1364 148 1416 277 q 1217 -81 1313 18 q 994 -236 1120 -181 q 729 -290 867 -290 q 464 -236 591 -290 q 241 -81 337 -181 q 93 148 144 18 q 41 416 41 277 q 96 689 41 559 q 242 915 150 820 q 461 1067 334 1010 q 729 1124 589 1124 z "},"":{"ha":1074,"x_min":41,"x_max":1034,"o":"m 405 -278 l 670 -278 l 1034 1111 l 708 1111 l 538 460 l 368 1111 l 41 1111 l 405 -278 z "},"":{"ha":1773,"x_min":41,"x_max":1732,"o":"m 405 -278 l 670 -278 l 887 552 l 1104 -278 l 1369 -278 l 1732 1111 l 1407 1111 l 1236 460 l 1066 1111 l 1034 1111 l 741 1111 l 708 1111 l 538 460 l 368 1111 l 41 1111 l 405 -278 z "},"":{"ha":1010,"x_min":41,"x_max":1033,"o":"m 506 818 q 396 783 438 818 q 366 745 376 766 q 357 686 357 724 l 357 132 q 365 82 357 99 q 393 50 373 65 q 506 15 438 15 q 618 50 574 15 q 647 82 639 65 q 655 132 655 99 l 655 686 q 645 745 655 724 q 615 783 635 766 q 506 818 573 818 m 194 1023 q 506 1133 324 1133 q 818 1023 688 1133 q 928 876 887 965 q 970 686 970 787 l 970 132 q 927 -54 970 33 q 814 -197 885 -140 q 757 -236 784 -220 q 772 -309 766 -292 q 787 -342 780 -330 q 812 -374 794 -355 q 855 -409 829 -393 q 926 -444 881 -424 q 1033 -483 971 -463 l 937 -783 q 634 -628 748 -723 q 478 -421 521 -534 q 441 -296 456 -366 q 197 -197 300 -279 q 84 -54 126 -140 q 41 132 41 33 l 41 686 q 83 876 41 787 q 194 1023 124 965 z "},"":{"ha":859,"x_min":41,"x_max":869,"o":"m 431 816 q 404 814 414 816 q 381 802 394 812 q 363 770 369 793 q 357 709 357 747 l 357 113 q 362 59 357 79 q 380 30 368 38 q 402 19 393 21 q 431 18 412 18 q 435 18 433 18 q 463 19 454 18 q 483 29 471 21 q 498 58 494 37 q 503 113 503 79 l 503 709 q 501 749 503 732 q 496 778 498 767 q 486 797 493 789 q 475 809 479 805 q 460 814 471 812 q 447 816 450 816 q 431 816 443 816 m 286 1098 q 320 1114 286 1098 q 429 1131 355 1131 q 572 1100 502 1132 q 697 1013 642 1068 q 785 878 751 958 q 818 709 818 798 l 818 113 q 756 -107 818 -9 q 596 -256 694 -205 q 608 -309 602 -292 q 624 -342 616 -330 q 648 -374 631 -355 q 691 -409 666 -393 q 762 -444 717 -424 q 869 -483 807 -463 l 773 -783 q 471 -628 585 -723 q 314 -421 357 -534 q 269 -258 285 -345 q 105 -109 168 -208 q 41 113 41 -11 l 41 709 q 74 877 41 798 q 161 1011 107 957 q 286 1098 216 1066 z "},"":{"ha":1010,"x_min":41,"x_max":970,"o":"m 194 1019 q 506 1128 323 1128 q 818 1019 688 1128 q 928 871 887 960 q 970 680 970 781 l 970 542 l 655 542 l 655 680 q 645 739 655 718 q 615 777 635 760 q 506 813 572 813 q 396 777 439 813 q 366 740 376 760 q 357 680 357 719 l 357 127 q 365 77 357 94 q 393 44 373 60 q 506 10 437 10 q 618 44 575 10 q 647 77 639 60 q 655 127 655 94 l 655 265 l 970 265 l 970 127 q 927 -59 970 28 q 814 -202 885 -146 q 506 -305 686 -305 q 197 -202 326 -305 q 84 -59 126 -146 q 41 127 41 28 l 41 680 q 83 871 41 781 q 194 1019 124 960 z "},"":{"ha":1010,"x_min":41,"x_max":970,"o":"m 41 1111 l 357 1111 l 357 130 q 365 79 357 96 q 393 47 373 62 q 506 12 438 12 q 618 47 574 12 q 647 79 639 62 q 655 130 655 96 l 655 1111 l 970 1111 l 970 130 q 927 -56 970 31 q 814 -199 885 -143 q 506 -302 686 -302 q 197 -199 326 -302 q 84 -56 126 -143 q 41 130 41 31 l 41 1111 z "},"":{"ha":1552,"x_min":41,"x_max":1512,"o":"m 72 1111 l 387 1111 q 415 902 387 996 q 491 745 442 808 q 608 650 541 682 q 777 618 675 618 q 946 650 878 618 q 1063 745 1013 682 q 1139 902 1112 808 q 1166 1111 1166 996 l 1481 1111 q 1311 551 1481 769 q 1213 452 1270 498 q 1330 323 1278 394 q 1466 42 1420 197 q 1512 -278 1512 -113 l 1197 -278 q 1164 -51 1197 -161 q 1074 139 1131 59 q 943 262 1015 221 q 777 303 871 303 q 610 262 682 303 q 479 139 538 221 q 390 -51 422 59 q 357 -278 357 -161 l 41 -278 q 87 42 41 -113 q 223 323 133 197 q 340 452 275 394 q 242 551 283 498 q 72 1111 72 769 z "},"":{"ha":905,"x_min":41,"x_max":864,"o":"m 59 1111 l 374 1111 q 375 930 374 995 q 380 788 376 865 q 395 669 385 712 q 425 596 408 612 q 427 593 425 595 q 429 591 428 591 q 436 590 431 591 q 452 590 441 590 q 468 590 463 590 q 474 591 473 591 q 477 593 475 591 q 479 596 478 595 q 509 669 496 614 q 524 790 519 712 q 529 929 528 867 q 530 1111 530 990 l 845 1111 q 845 1023 845 1093 q 845 929 846 954 q 844 848 845 905 q 839 758 842 791 q 830 682 836 726 q 816 600 825 637 q 745 425 792 494 q 816 257 788 359 q 855 21 846 148 q 864 -278 864 -105 l 549 -278 q 512 174 549 35 q 471 265 494 241 q 467 271 469 268 q 460 273 465 273 q 453 273 456 273 q 439 271 440 273 q 434 265 434 265 q 394 174 412 241 q 357 -278 357 35 l 41 -278 q 51 21 41 -105 q 90 257 60 148 q 160 424 116 355 q 88 600 112 493 q 74 682 79 637 q 65 758 68 726 q 60 848 62 791 q 59 929 59 905 q 59 1023 58 954 q 59 1111 59 1093 z "}}}
